<svg xmlns="http://www.w3.org/2000/svg" xmlns:xlink="http://www.w3.org/1999/xlink" width="62.882" height="62.242" viewBox="0 0 62.882 62.242">
  <defs>
    <linearGradient id="linear-gradient" x1="0.5" y1="1" x2="0.5" gradientUnits="objectBoundingBox">
      <stop offset="0" stop-color="#ff0070"/>
      <stop offset="1" stop-color="#ffaf00"/>
    </linearGradient>
  </defs>
  <g id="Group_170" data-name="Group 170" transform="translate(-1670 -1131)">
    <g id="Group_95" data-name="Group 95" transform="translate(855.941 443.621)">
      <path id="Path_57" data-name="Path 57" d="M845.5,687.379l6.218,10.589,10.955-5.546-.494,12.269,12.215,1.257L867.345,716l9.6,7.661-11.366,4.647,3.931,11.633-12.074-2.235-2.983,11.912-8.949-8.408-8.949,8.408-2.983-11.912-12.074,2.235,3.931-11.633-11.366-4.647,9.6-7.661-7.049-10.055,12.215-1.257-.494-12.269,10.955,5.546Z" fill="url(#linear-gradient)"/>
      <g id="Group_97" data-name="Group 97">
        <g id="Group_95-2" data-name="Group 95">
          <path id="Path_58" data-name="Path 58" d="M828.683,718.36h6.649v2.018h-4.18v2.485h3.906v2h-3.906v4.374h-2.469Z" fill="#fff"/>
          <path id="Path_59" data-name="Path 59" d="M837.188,718.506a21.639,21.639,0,0,1,3.277-.226,5.552,5.552,0,0,1,3.518.855,2.759,2.759,0,0,1,1,2.276,2.886,2.886,0,0,1-1.92,2.679v.048a2.742,2.742,0,0,1,1.452,2.034c.339,1.226.678,2.647.888,3.066h-2.517a13.579,13.579,0,0,1-.759-2.534c-.29-1.355-.759-1.726-1.759-1.743h-.743v4.277h-2.437Zm2.437,4.68h.969c1.226,0,1.953-.613,1.953-1.566,0-1-.678-1.5-1.808-1.517a6.165,6.165,0,0,0-1.114.081Z" fill="#fff"/>
          <path id="Path_60" data-name="Path 60" d="M853.23,724.639h-4v2.582h4.47v2.017h-6.939V718.36h6.714v2.018h-4.245v2.259h4Z" fill="#fff"/>
          <path id="Path_61" data-name="Path 61" d="M861.849,724.639h-4v2.582h4.471v2.017h-6.94V718.36h6.714v2.018h-4.245v2.259h4Z" fill="#fff"/>
        </g>
        <g id="Group_96" data-name="Group 96">
          <path id="Path_62" data-name="Path 62" d="M842.228,707.762v.993l-2.773,5.733h-1.666l2.773-5.412v-.021h-3.083v-1.293Z" fill="#fff"/>
          <path id="Path_63" data-name="Path 63" d="M846.3,708.983v2.256h2.162v.972H846.3v2.277h-1.014v-2.277h-2.163v-.972h2.163v-2.256Z" fill="#fff"/>
          <path id="Path_64" data-name="Path 64" d="M851.323,709.159H851.3l-1.283.61-.259-1.179,1.78-.828h1.3v6.726h-1.521Z" fill="#fff"/>
        </g>
      </g>
    </g>
  </g>
</svg>
