<svg xmlns="http://www.w3.org/2000/svg" xmlns:xlink="http://www.w3.org/1999/xlink" width="49.138" height="61.939" viewBox="0 0 49.138 61.939">
  <defs>
    <linearGradient id="linear-gradient" x1="-0.078" y1="1.095" x2="1.029" y2="-0.044" gradientUnits="objectBoundingBox">
      <stop offset="0" stop-color="#ff0070"/>
      <stop offset="1" stop-color="#ffaf00"/>
    </linearGradient>
    <linearGradient id="linear-gradient-2" x1="-3.844" y1="1.337" x2="2.023" y2="0.207" xlink:href="#linear-gradient"/>
    <linearGradient id="linear-gradient-3" x1="-0.492" y1="7.91" x2="0.615" y2="-0.361" xlink:href="#linear-gradient"/>
  </defs>
  <g id="Group_169" data-name="Group 169" transform="translate(-1322 -1132)">
    <g id="Group_98" data-name="Group 98" transform="translate(227.843 442.333)">
      <path id="Path_65" data-name="Path 65" d="M1131.146,705.985c-1.609-1.758-3.218-3.519-4.781-5.32a2.369,2.369,0,0,0-1.977-.87q-14.018.034-28.038.014c-1.387,0-1.815.427-1.815,1.81v23.739h0q0,11.934,0,23.867c0,1.145.476,1.623,1.607,1.623q16.9,0,33.8,0c1.357,0,1.761-.41,1.761-1.785q0-20.8.008-41.593A2.064,2.064,0,0,0,1131.146,705.985Zm-6.462-3.216,3.107,3.445h-3.107Z" transform="translate(0.028 0.75)" fill="url(#linear-gradient)"/>
      <path id="Path_66" data-name="Path 66" d="M1138.241,702.1v46.1c.325.015.636.01.941.047a1.3,1.3,0,0,1,1.205,1.375,1.27,1.27,0,0,1-1.325,1.245q-2.181.026-4.365,0a1.259,1.259,0,0,1-1.319-1.249,1.3,1.3,0,0,1,1.207-1.372,8.875,8.875,0,0,1,.931-.005V702.1c-.267,0-.534.012-.8,0a1.312,1.312,0,0,1-1.34-1.373,1.278,1.278,0,0,1,1.372-1.265q2.119-.018,4.238,0a1.3,1.3,0,0,1,1.4,1.3,1.333,1.333,0,0,1-1.381,1.339C1138.778,702.107,1138.547,702.1,1138.241,702.1Z" transform="translate(2.905 0.725)" fill="url(#linear-gradient-2)"/>
      <path id="Path_67" data-name="Path 67" d="M1096.809,694.539c0,.335.022.63,0,.922a1.313,1.313,0,0,1-1.351,1.235,1.273,1.273,0,0,1-1.273-1.243q-.047-2.278,0-4.556a1.278,1.278,0,0,1,1.286-1.229,1.308,1.308,0,0,1,1.332,1.186,8.934,8.934,0,0,1,.005.964h31.885c0-.318-.016-.608,0-.895a1.286,1.286,0,0,1,1.32-1.256,1.25,1.25,0,0,1,1.277,1.228q.048,2.277,0,4.555a1.259,1.259,0,0,1-1.323,1.246,1.3,1.3,0,0,1-1.277-1.3c-.014-.271,0-.542,0-.856Z" transform="translate(0 0)" fill="url(#linear-gradient-3)"/>
      <g id="Group_98-2" data-name="Group 98" transform="translate(1099.507 717.841)">
        <path id="Path_68" data-name="Path 68" d="M1103.611,727.576l-1.4,4.616h-3.07l5.221-16.294h3.795l5.3,16.294h-3.191l-1.475-4.616Zm4.666-2.248-1.282-4.014c-.313-.99-.58-2.1-.821-3.046h-.048c-.243.943-.483,2.079-.774,3.046l-1.257,4.014Z" transform="translate(-1099.138 -715.898)" fill="#fff"/>
        <path id="Path_69" data-name="Path 69" d="M1120.535,732.152v-3.989h-7.107V726.23l6.406-9.791h3.5v9.477h2.031v2.247h-2.031v3.989Zm0-6.236v-4.279c0-.895.025-1.813.1-2.732h-.1c-.483.991-.895,1.789-1.378,2.659l-2.877,4.3-.024.048Z" transform="translate(-1098.079 -715.858)" fill="#fff"/>
      </g>
    </g>
  </g>
</svg>
