<svg xmlns="http://www.w3.org/2000/svg" xmlns:xlink="http://www.w3.org/1999/xlink" width="84.895" height="62.917" viewBox="0 0 84.895 62.917">
  <defs>
    <linearGradient id="linear-gradient" y1="0.5" x2="1" y2="0.5" gradientUnits="objectBoundingBox">
      <stop offset="0" stop-color="#ff0070"/>
      <stop offset="1" stop-color="#ffaf00"/>
    </linearGradient>
  </defs>
  <g id="Group_93" data-name="Group 93" transform="translate(-254.552 -687.542)">
    <path id="Path_54" data-name="Path 54" d="M281.651,687.542q10.977,0,21.954,0a5.271,5.271,0,0,1,5.316,5.183c.03,9.141.016,18.281.018,27.422,0,1.3.018,2.594-.009,3.891a5.091,5.091,0,0,1-5.007,5.055q-11.068.06-22.139-.014a10.223,10.223,0,0,1-2.4-.591,12.755,12.755,0,0,0-7.9.39,3.713,3.713,0,0,1-1.258.223q-5.28.023-10.56,0a5.107,5.107,0,0,1-5.1-5.056q-.025-15.749-.01-31.5a5.112,5.112,0,0,1,5.14-5.006Q270.675,687.54,281.651,687.542Zm.206,29.825c-1.005-2.6-.868-5.351-2.944-7.257a3.5,3.5,0,0,1,.28-.231,3.985,3.985,0,0,0,1.952-4.253,3.646,3.646,0,0,0-3.415-3.354c-2.158-.21-4.348-.078-6.524-.117-.923-.017-1.058.463-1.049,1.274.04,3.765.021,7.53.015,11.295,0,2.7-.009,2.662,2.671,2.676.915.005,1.185-.343,1.157-1.2-.043-1.326,0-2.654-.014-3.981-.006-.537.179-.769.751-.781,1.279-.028,1.773.288,2.179,1.651.334,1.12.552,2.276.912,3.386.113.346.5.816.8.85A30.708,30.708,0,0,0,281.857,717.367Zm13.524-7.749c0,2.285.022,4.571-.014,6.856-.011.692.221.914.9.905,2.223-.028,4.447.007,6.67,0,2.385-.01,2.368-.019,2.252-2.42-.026-.533-.221-.7-.721-.684-.987.022-1.976.005-2.964.005-2.531,0-2.508,0-2.481-2.547.007-.673.25-.854.875-.825.863.04,1.729.009,2.594.006,2.191-.008,2.165-.009,2.137-2.221-.008-.676-.289-.861-.887-.851-.926.016-1.852.01-2.778,0-2.241-.026-1.886.3-1.936-1.993-.016-.723.282-.9.937-.872,1.017.041,2.038.027,3.056.007,2.139-.041,1.9.414,1.964-1.983.021-.808-.258-1.1-1.059-1.089-2.562.028-5.126.022-7.688,0-.7-.006-.883.286-.873.948C295.4,705.108,295.382,707.363,295.381,709.618Zm-2.8,1.292c0-.87-.023-1.607.007-2.341.022-.533-.225-.72-.715-.718-.895,0-1.791.005-2.686-.014-2.291-.047-1.965.481-2.01-2.088-.011-.636.272-.789.843-.773,1.049.029,2.1.025,3.15,0,2.152-.043,1.908.431,1.955-1.977.016-.787-.257-1.113-1.067-1.1-2.532.029-5.065.024-7.6,0-.7-.006-.962.22-.956.967q.049,6.765,0,13.53c-.006.784.259,1.005,1.012.993,2.223-.037,4.447-.009,6.671-.01s2.227-.031,2.084-2.3c-.036-.577-.23-.822-.839-.8-1.2.036-2.408.011-3.613.008-2.159,0-1.766.164-1.811-1.736-.006-.247.016-.5-.011-.741-.076-.686.21-.924.9-.9C289.4,710.939,290.914,710.91,292.578,710.91Zm-34.2-1.324h.005c0,1.73,0,3.46,0,5.189.009,3.083-.447,2.506,2.655,2.621.888.033,1.125-.328,1.1-1.14-.04-1.388.006-2.779-.017-4.169-.009-.587.194-.847.808-.818.739.034,1.482,0,2.223,0,2.3-.01,2.282-.01,2.229-2.33-.014-.633-.262-.789-.83-.778-1.235.024-2.471-.011-3.706.01-.933.016-.825-.706-.7-1.164.186-.68-.709-1.838.7-2,1.036-.119,2.1-.009,3.147-.027,2.087-.037,1.861.385,1.935-1.924.031-.931-.347-1.164-1.189-1.153-2.47.033-4.941.028-7.412,0-.74-.008-.964.312-.956,1.007C258.39,705.139,258.375,707.363,258.375,709.586Zm78.4,19.278h-3.337c-1.482,0-2.974.109-4.443-.027-1.768-.163-3.522-.5-5.272-.819-6.466-1.166-12.774,3.461-14.34,9.553a20.4,20.4,0,0,0-.435,3.843c-.036.6-.2.807-.8.8q-9.031-.022-18.063,0c-.524,0-.792-.134-.787-.725a13.14,13.14,0,0,0-3.6-9.345,1.369,1.369,0,0,1-.137-.332h24.558c.024-.406.059-.731.059-1.056q0-13.341,0-26.682a9.39,9.39,0,0,1,.082-1.383c.335-2.246,1.867-3.356,4.153-3.294,3.264.089,6.532.058,9.8.024a3.125,3.125,0,0,1,2.978,1.8c1.879,3.366,3.787,6.717,5.683,10.075,1,1.773,2.064,3.515,2.971,5.335a12.484,12.484,0,0,1,.908,2.97c.152.709-.289,1.086-1.018,1.1a12.3,12.3,0,0,0-1.387.044A1.669,1.669,0,0,0,332.8,722.5a1.65,1.65,0,0,0,1.65,1.553c2.328.174,2.328.174,2.328,2.505Zm-14.657-13.221c1.912,0,3.825.015,5.737-.006,1.092-.012,1.372-.445,1.012-1.472a2.876,2.876,0,0,0-.235-.5c-1.583-2.717-3.177-5.426-4.747-8.149a1.818,1.818,0,0,0-1.738-.988c-1.881.017-3.763,0-5.644.015-1.1.009-1.373.276-1.379,1.37q-.021,4.164-.006,8.329c0,1.126.284,1.393,1.448,1.4C318.416,715.651,320.266,715.645,322.117,715.643Zm-46.123,34.788a9.307,9.307,0,0,1-9.181-9.235,9.486,9.486,0,0,1,9.344-9.335,9.285,9.285,0,1,1-.163,18.57Zm4.335-9.139a4.241,4.241,0,0,0-4.205-4.369,4.3,4.3,0,0,0-4.251,4.152,4.23,4.23,0,0,0,8.456.217Zm50.849-.049a9.268,9.268,0,0,1-18.536-.075,9.268,9.268,0,1,1,18.536.075Zm-9.223,4.141a4.425,4.425,0,0,0,4.344-4.28,4.229,4.229,0,0,0-8.458.048A4.178,4.178,0,0,0,321.955,745.384ZM257.9,731.844a2.127,2.127,0,0,0-1.9,2.086c-.07,2.1-.064,4.2,0,6.29a1.777,1.777,0,0,0,1.508,1.867c1.792.142,3.6.042,5.481.042a12.881,12.881,0,0,1,3.842-10.306C263.735,731.823,260.818,731.784,257.9,731.844Zm77.213,9.893c-.008.495.213.666.662.649.493-.019.99,0,1.477-.065a2.486,2.486,0,0,0,2.171-2.387c.028-1.883.034-3.767,0-5.649a2.632,2.632,0,0,0-2.357-2.457c-1.872-.059-3.747-.015-5.864-.015A13.514,13.514,0,0,1,335.115,741.737ZM275.8,707.98a1.973,1.973,0,0,0,1.83-2.134c-.093-1.34-.9-1.848-2.759-1.817-1.469.026-.65,1.145-.881,1.761a.538.538,0,0,0,0,.184C273.946,708.114,274.013,708.188,275.8,707.98Z" fill="url(#linear-gradient)"/>
  </g>
</svg>
