<?xml version="1.0" encoding="utf-8"?>
<!-- Generator: Adobe Illustrator 25.0.0, SVG Export Plug-In . SVG Version: 6.00 Build 0)  -->
<svg version="1.1" id="Layer_1" xmlns="http://www.w3.org/2000/svg" xmlns:xlink="http://www.w3.org/1999/xlink" x="0px" y="0px"
	 viewBox="0 0 39.4 39.4" style="enable-background:new 0 0 39.4 39.4;" xml:space="preserve">
<style type="text/css">
	.st0{fill:#D33C33;}
</style>
<g>
	<g>
		<path class="st0" d="M34.1,30.9c0,0.7-0.5,1.2-1.2,1.2c-0.7,0-1.2-0.5-1.2-1.2c0-0.7,0.6-1.2,1.2-1.2
			C33.5,29.7,34.1,30.3,34.1,30.9z"/>
		<path class="st0" d="M13.5,32c-0.6,0-1.1-0.5-1.1-1.1c0-0.6,0.5-1.1,1.1-1.1c0.6,0,1.1,0.5,1.1,1.1C14.6,31.5,14.1,32,13.5,32z"/>
		<path class="st0" d="M37.6,25.3c0-0.6-0.2-1-0.5-1.4c-1.6-1.8-3.3-3.7-4.9-5.5c-0.3-0.4-0.8-0.5-1.3-0.5c-1.3,0-2.6,0-4,0
			c-0.2,0-0.4,0-0.6,0c0-0.3,0-0.5,0-0.7c0-1,0-1.9,0-2.9c0-1.2-1-2.6-2.7-2.5c-5,0.1-10.1,0-15.1,0c-0.1,0-0.2,0-0.3,0
			c-1,0-1.7,0.4-2.1,1.3c-0.3,0.6-0.4,1.3-0.4,1.9c0,2.1,0,4.2,0,6.3c0.1,0,0.2,0,0.3,0c0.2,0,0.5,0,0.7,0.1l0-6.4
			c0-0.3,0-0.7,0.1-1c0.2-0.8,0.7-1.1,1.5-1.1c2.6,0,5.2,0,7.7,0c2.5,0,5,0,7.6,0c1,0,1.6,0.5,1.7,1.5c0,0.2,0,0.4,0,0.6
			c0,3.4,0,6.9,0,10.3c0,0.5-0.2,0.6-0.6,0.6c-4.3,0-8.6,0-12.9,0c-0.2,0-0.4-0.1-0.5,0c-0.2,0.1-0.4,0.3-0.5,0.5
			c0.2,0.2,0.3,0.4,0.5,0.5c0.1,0.1,0.3,0,0.5,0c4.3,0,8.6,0,13,0c0.5,0,0.6,0.1,0.6,0.6c0,0.9,0,1.8,0,2.7c0,0.3-0.1,0.4-0.4,0.4
			c-2.7,0-5.4,0-8.1,0c-0.3,0-0.4-0.1-0.5-0.4c-0.4-1.3-1.4-2.1-2.7-2.1c-1.3,0-2.3,0.8-2.7,2.1c-0.1,0.3-0.2,0.4-0.5,0.4
			c-1,0-2,0-3,0c-0.4,0-0.6-0.2-0.6-0.6c0-0.1,0-0.2,0-0.4l0-1.3c-0.2,0-0.5,0.1-0.7,0.1c-0.1,0-0.2,0-0.3,0c0,0.4,0,0.9,0,1.3
			c0,0.2,0,0.3,0,0.5c0.1,0.9,0.7,1.4,1.6,1.4c1,0,2.1,0,3.1,0c0.3,0,0.4,0.1,0.5,0.3c0.4,1.1,1.5,1.9,2.7,1.9
			c1.2,0,2.2-0.7,2.6-1.8c0.1-0.3,0.2-0.4,0.5-0.4c4.4,0,8.7,0,13.1,0c0.2,0,0.4,0.2,0.5,0.3c0.5,1.2,1.4,1.9,2.7,1.9
			c1.3,0,2.2-0.7,2.7-1.9c0.1-0.2,0.3-0.3,0.5-0.3c1.1-0.1,1.5-0.5,1.5-1.6C37.6,28.4,37.5,26.9,37.6,25.3z M13.5,32.7
			c-1,0-1.8-0.8-1.8-1.8c0-1,0.8-1.9,1.8-1.8c1,0,1.8,0.8,1.8,1.8C15.3,31.9,14.5,32.7,13.5,32.7z M32.7,21c0.2,0,0.4,0.1,0.5,0.2
			c0.9,0.9,1.7,1.9,2.5,2.8c0,0,0,0.1,0,0.2c-0.1,0-0.3,0-0.4,0c-1.8,0-3.5,0-5.3,0c-0.4,0-0.6-0.1-0.6-0.6c0-0.7,0-1.4,0-2.1
			c0-0.4,0.1-0.6,0.6-0.6C30.9,21,31.8,20.9,32.7,21z M32.9,32.7c-1,0-1.8-0.8-1.8-1.8c0-1,0.8-1.8,1.8-1.8c1,0,1.8,0.8,1.8,1.8
			C34.7,31.9,33.9,32.7,32.9,32.7z M36.5,29.9c0,0.3,0,0.6-0.4,0.6c-0.2,0-0.4,0-0.5-0.3c-0.4-1.3-1.5-2.1-2.8-2.1
			c-1.3,0-2.3,0.8-2.7,2.1c-0.1,0.3-0.2,0.3-0.5,0.3c-1,0-2,0-3,0c-0.3,0-0.4-0.1-0.4-0.4c0-3.6,0-7.2,0-10.8c0-0.4,0.1-0.5,0.5-0.5
			c1.4,0,2.7,0,4.1,0c0.7,0,0.8,0.6,1.2,0.9c0,0,0,0.1,0,0.1c-0.6,0-1.3,0-1.9,0c-1.1,0-1.6,0.5-1.6,1.6c0,0.8,0,1.5,0,2.3
			c0,0.9,0.5,1.4,1.4,1.4c2,0,4,0,6,0c0.4,0,0.6,0.1,0.6,0.6C36.5,27.2,36.5,28.5,36.5,29.9z"/>
		<path class="st0" d="M6.9,23.5c1.3,0,2.5,0,3.8,0c0.2,0,0.3,0,0.4,0c0.2,0.1,0.4,0.3,0.4,0.5c0,0.2-0.2,0.4-0.4,0.5
			c-0.1,0.1-0.3,0-0.4,0c-2.6,0-5.2,0-7.8,0c-0.1,0-0.3,0-0.3,0c-0.2-0.2-0.4-0.4-0.4-0.6c0-0.1,0.3-0.4,0.4-0.5
			c0.2-0.1,0.4,0,0.6,0C4.5,23.5,5.7,23.5,6.9,23.5z"/>
		<path class="st0" d="M4.9,25.9c0.9,0,1.9,0,2.8,0c0.1,0,0.2,0,0.3,0c0.3,0,0.6,0.2,0.6,0.6C8.5,26.9,8.3,27,8,27c-0.5,0-1,0-1.5,0
			c-1.5,0-2.9,0-4.4,0c-0.1,0-0.3,0-0.4,0c-0.3,0-0.6-0.2-0.5-0.5c0-0.2,0.3-0.5,0.5-0.5c0.4-0.1,0.9,0,1.4,0
			C3.7,25.9,4.3,25.9,4.9,25.9z"/>
		<g>
			<path class="st0" d="M9,16.1h2.7v0.5h-2v1.6h1.9v0.5H9.6v2.2H9V16.1z"/>
			<path class="st0" d="M12.6,16.2c0.3-0.1,0.8-0.1,1.2-0.1c0.7,0,1.1,0.1,1.4,0.4c0.2,0.2,0.4,0.6,0.4,0.9c0,0.7-0.4,1.1-0.9,1.3v0
				c0.4,0.1,0.6,0.5,0.7,1c0.2,0.7,0.3,1.2,0.4,1.4h-0.7c-0.1-0.1-0.2-0.6-0.3-1.2c-0.1-0.7-0.4-0.9-1-1h-0.6v2.1h-0.6V16.2z
				 M13.2,18.4h0.7c0.7,0,1.1-0.4,1.1-0.9c0-0.6-0.5-0.9-1.1-0.9c-0.3,0-0.5,0-0.6,0.1V18.4z"/>
			<path class="st0" d="M19.1,18.7h-1.9v1.8h2.1v0.5h-2.8v-4.9h2.7v0.5h-2v1.6h1.9V18.7z"/>
			<path class="st0" d="M22.7,18.7h-1.9v1.8h2.1v0.5h-2.8v-4.9h2.7v0.5h-2v1.6h1.9V18.7z"/>
		</g>
	</g>
	<path class="st0" d="M9.7,8.7"/>
	<path class="st0" d="M8.7,5.7"/>
	<path class="st0" d="M10.5,9.7l4.8,2.7c0,0-3.9-1.7-3.6-4.5c0,0,1.1-2,3.3,0c0,0,1.7,1.8,0.9,4.5c0,0-0.1-6.5,4.1-5.6
		c0,0,2.8,1.7-1.8,5l3.8-1.3l-5.3,2.2h-2L10.5,9.7z"/>
</g>
</svg>
