<?xml version="1.0" encoding="utf-8"?>
<!-- Generator: Adobe Illustrator 25.0.0, SVG Export Plug-In . SVG Version: 6.00 Build 0)  -->
<svg version="1.1" id="Layer_1" xmlns="http://www.w3.org/2000/svg" xmlns:xlink="http://www.w3.org/1999/xlink" x="0px" y="0px"
	 viewBox="0 0 386 141" style="enable-background:new 0 0 386 141;" xml:space="preserve">
<style type="text/css">
	.st0{fill:#808080;}
</style>
<path class="st0" d="M354,107.2c-11.3,0-22.2,0-33.9,0c-0.1-3.1-0.4-6.6-0.5-10c-0.4-15.4-7.8-26.2-20.7-30.5
	c-0.8-0.3-1.6-0.3-2.6-0.2c7.5,3.8,13.5,8.8,16,17c2.5,8.3,1.6,16.2-3.5,23.3c-8.4,11.9-24.5,14.6-36.3,6.3
	c-9.7-6.8-17.2-23-4.4-39.2c-5.6,3.7-10,11.4-11.9,20.8c-1.5,7.1-3.2,8.8-10.5,9.7c-1.8,0.2-3.7,0.4-5.5,0.4
	c-37.7-0.1-75.3-0.2-113-0.2c-5.8,0-11.5,1.1-17.8,1.7c1.2-11,1.7-21.8-5.7-30.9c6.5,18.4,4.9,29.1-6.1,37.7
	c-9.2,7.1-22.5,7.4-32.2,0.6c-11-7.7-13.3-18.6-7.4-37.8c-4.6,5.7-5.9,11.7-6,18.1c-0.1,5.8-2,7.4-7.8,6.3
	c-3.7-0.8-7.4-1.9-11.1-2.9c-2.7-0.7-5-2.8-8.4-1c-1.1,0.6-5.9-2.6-6.2-4.5c-1.2-9-1.7-18.1-1.9-27.2c0-1.9,2.2-3.9,3.5-5.8
	c1.8-2.5,4-4.8,5.7-7.4c1.7-2.6,3.2-5.4,4.4-8.2c0.6-1.6,1-3.6,0.6-5.2c-0.9-3.7-2.4-7.2-3.9-11.5c13.2-0.3,26.2-0.7,37.2,7.9
	c2.6,2,4.7,2,7.6,1.3C95.4,30.8,119,24.6,143,21c21-3.1,41.9-0.6,61.1,10.1c5.8,3.2,11.9,5.9,17.9,8.9c9.7,4.8,19.9,7.3,30.7,7.9
	c25.2,1.5,50.2,4.2,74.4,11.5c7.1,2.2,13.9,5.5,20.5,9.1c5.8,3.2,8.6,8.5,7.9,15.5C354.8,91.4,354.5,98.9,354,107.2z M283.7,109.5
	l-0.2-0.1c2.6,0.4,5.2,0.7,7.7,1.1c-0.5-4.3-0.9-7.8-1.3-11.2c0.4-0.1,0.9-0.3,1.3-0.4c1.9,2.9,3.8,5.8,5.9,9.1
	c1.2-1.4,2.7-3.1,4.2-4.8l0,0.1c0.9-1,1.9-1.8,2.6-2.9c3.8-6.5,2.6-15.4-2.8-21.3c-5.4-5.8-13.8-7.5-21-4.3
	c-7.6,3.4-11.9,11.2-10.9,19.5C270,101.1,276.3,109,283.7,109.5z M134.2,45.3c21.8,0.7,43.5,1.4,64.5,2.1c0.8-3.7,1.4-6.5,2.1-9.6
	c-14.8-10.2-33.8-14.7-54.4-12.4c-11.4,1.2-13.7,4.1-12.9,15.6C133.6,42.3,133.9,43.6,134.2,45.3z M98.3,100.1
	c4.1-8.3,2.4-17.3-4.7-23.3c-7-5.8-17.2-6-24.4-0.4c-6.9,5.3-9.3,15.5-5.6,23.4c3.7,8.1,12.2,12.4,21,10.6
	c-0.2-3.4-0.4-6.9-0.7-10.4c0.4-0.1,0.7-0.2,1.1-0.3c2.2,2.8,4.3,5.5,6.6,8.4c1.1-1,2.1-1.8,2.9-2.5c-2.4-2.7-4.7-5.3-7-7.9
	c0.2-0.4,0.5-0.7,0.7-1.1C91.3,97.9,94.6,99,98.3,100.1z M231.6,97.2c0-0.2,0-0.4,0-0.7c-3.3-0.4-6.5-0.9-9.8-1.1
	c-29.4-1.6-58.9-3.2-88.3-4.8c-8.4-0.5-8.5-0.6-7.5-10.5c-2.6,0.7-5.5,0.7-6.6,2.1c-1.1,1.4-1.3,4.8-0.4,6.3
	c1.3,2.2,3.8,4.5,6.3,5.2c4.6,1.4,9.4,2.4,14.2,2.5c29.5,0.5,59,0.8,88.4,1.1C229.2,97.4,230.4,97.3,231.6,97.2z M132.5,27.9
	c-9.2,1.3-16.9,4.9-24.3,9.5c-2.8,1.7-1.5,5.8,2.4,6.4c6.3,1,12.8,1.1,19,1.5C130.6,39.3,131.5,34,132.5,27.9z M331.4,62.6
	c1.7,11.1,10.8,15.1,19.9,11.5C346.3,67.7,339.4,65.1,331.4,62.6z"/>
<path class="st0" d="M301.3,103.2c-5.5,1.3-4.8-4.6-8.1-6c0.2-0.4,0.4-0.7,0.6-1.1c2.8,0.8,5.5,1.5,8.9,2.4c-0.5,1.8-1,3.3-1.4,4.8
	C301.4,103.4,301.3,103.2,301.3,103.2z"/>
<path class="st0" d="M80.3,100.4c0,2.9,0,5.7,0,9.2c-1.7-0.1-3.4-0.3-6.2-0.5c1.8-3.6,3.3-6.4,4.7-9.2
	C79.3,100,79.8,100.2,80.3,100.4z"/>
<path class="st0" d="M74.7,93.8c-3.3,1-6.6,2-10.3,3.1c-0.1-2.1-0.2-3.5-0.3-5.9c3.8,0.5,7.2,0.9,10.5,1.3
	C74.6,92.8,74.6,93.3,74.7,93.8z"/>
<path class="st0" d="M88.8,92.7c3-0.9,6-1.8,9.8-3c-0.1,2.3-0.2,3.9-0.3,6c-3.6-0.6-6.5-1.1-9.5-1.6C88.9,93.5,88.9,93.1,88.8,92.7z
	"/>
<path class="st0" d="M83.2,85.3c0.1-2.9,0.3-5.8,0.5-9.4c2,0.4,3.4,0.7,5.6,1.2c-1.8,3.3-3.2,6-4.6,8.6
	C84.1,85.6,83.6,85.4,83.2,85.3z"/>
<path class="st0" d="M69.4,80.1c2.5,2.9,4.3,5.1,6.2,7.3c-0.2,0.3-0.4,0.7-0.6,1c-2.8-0.9-5.6-1.8-9.2-2.9
	C67,83.6,68,82.1,69.4,80.1z"/>
<path class="st0" d="M76.4,98.1c-1.9,2.5-3.9,5-6.2,8c-1.4-1.6-2.3-2.8-3.7-4.5c3.4-1.7,6.2-3.2,8.9-4.6
	C75.7,97.4,76.1,97.7,76.4,98.1z"/>
<path class="st0" d="M73.3,78.1c2.1-0.8,3.5-1.4,5.5-2.2c0.3,3.6,0.6,6.5,0.9,9.5c-0.4,0.1-0.7,0.3-1.1,0.4
	C77.1,83.5,75.5,81.2,73.3,78.1z"/>
<path class="st0" d="M87.6,88.3c1.8-2.5,3.6-4.9,5.7-7.8c1.3,1.3,2.2,2.3,3.7,3.9c-3.1,1.7-5.8,3.2-8.5,4.7
	C88.2,88.8,87.9,88.5,87.6,88.3z"/>
<path class="st0" d="M271.3,90c3.8,0.7,6.8,1.2,9.9,1.8c0,0.5,0.1,1,0.1,1.5c-3.2,0.9-6.3,1.8-10,2.8
	C271.3,93.9,271.3,92.4,271.3,90z"/>
<path class="st0" d="M283.7,109.5c-0.4-1.3-1.5-2.8-1.2-3.8c0.7-2.2,2.2-4.1,3.6-6.6c2.2,7.2,1.5,9.7-2.6,10.3
	C283.5,109.4,283.7,109.5,283.7,109.5z"/>
<path class="st0" d="M281.6,88.9c-2.8-1.1-5.5-2.1-9-3.4c1.3-1.8,2.3-3.1,3.6-5c2.3,2.8,4.2,5.1,6,7.4
	C282,88.2,281.8,88.6,281.6,88.9z"/>
<path class="st0" d="M283.3,97.2c-1.9,2.3-3.8,4.7-6.1,7.6c-1.3-1.4-2.3-2.5-3.9-4.2c3.5-1.7,6.3-3.1,9.1-4.5
	C282.7,96.5,283,96.9,283.3,97.2z"/>
<path class="st0" d="M285.1,85.4c-1.6-2.2-3.2-4.3-5.2-7.1c1.8-0.8,3.2-1.5,5.4-2.5c0.3,3.6,0.6,6.3,0.8,9.1
	C285.9,85.1,285.5,85.2,285.1,85.4z"/>
<path class="st0" d="M304.8,89.8c0.5,6-1.2,6.4-10.3,2.8C298.4,91.5,301.4,90.7,304.8,89.8z"/>
<path class="st0" d="M295.8,77c-1.9,3.4-3.3,6-4.6,8.5c-0.3-0.1-0.6-0.1-0.9-0.2c0-2.9,0-5.9,0-9.4C292.1,76.3,293.5,76.5,295.8,77z
	"/>
<path class="st0" d="M293.8,87.8c1.8-2.3,3.6-4.6,6.1-7.9c1.1,1.4,1.9,2.5,3.2,4.2c-3.3,1.7-6,3.1-8.7,4.6
	C294.1,88.3,293.9,88.1,293.8,87.8z"/>
</svg>
