<svg version="1.2" baseProfile="tiny-ps" xmlns="http://www.w3.org/2000/svg" viewBox="0 0 233 61" width="233" height="61">
	<title>About us</title>
	<style>
		tspan { white-space:pre }
		.shp0 { fill: #333333 } 
		.shp1 { fill: #000000 } 
		.txt2 { font-size: 41px;line-height: 50px;fill: #cc0000;font-weight: bold;font-family: "Helvetica LT Std" } 
		.shp3 { fill: #cc0000 } 
		.shp4 { fill: #666666 } 
		.shp5 { fill: #999999 } 
	</style>
	<g id="About us">
		<g id="Group 1053">
			<g id="Group 1046">
				<g id="Group 1045">
					<g id="Group 1041">
						<path id="Path 1528" class="shp0" d="M150.12 26.13L75.89 26.52L152.74 26.9L150.12 26.13Z" />
						<path id="Path 1529" class="shp0" d="M159.73 22.74L99.26 23.14L161.88 23.56L159.73 22.74Z" />
						<path id="Path 1530" class="shp0" d="M182.72 24.32L130.27 24.84L185.35 25.37L182.72 24.32Z" />
					</g>
					<g id="Group 1042">
						<path id="Path 1531" class="shp0" d="M195.83 49.87L72.66 50.37L193.9 50.88L195.83 49.87Z" />
						<path id="Path 1532" class="shp0" d="M147.11 51.89L90.5 52.5L144.4 53.1L147.11 51.89Z" />
					</g>
					<path id="Path 1533" class="shp1" d="M174.48 49.95C174.5 49.98 174.51 50.01 174.52 50.03C174.52 50.03 174.53 50.03 174.53 50.02C174.51 50 174.5 49.97 174.48 49.95Z" />
					<path id="Path 1534" class="shp1" d="M174.48 49.95C174.5 49.98 174.51 50.01 174.52 50.03C174.52 50.03 174.53 50.03 174.53 50.02C174.51 50 174.5 49.97 174.48 49.95Z" />
					<text id="Diecast Car Sales" style="transform: matrix(0.5,0,0,0.5,32.116,45.23)" >
						<tspan x="0" y="0" class="txt2">Diecast Car Sales</tspan>
					</text>
					<g id="Group 1044">
						<path id="Path 1535" class="shp0" d="M72.63 24.66L73.77 24.22L73.76 24.21C71.03 17.19 66.3 11.2 60.1 6.87C53.75 2.45 46.28 0.11 38.51 0.11C17.66 0.11 0.7 17.07 0.7 37.93C0.7 45.97 3.19 53.65 7.91 60.14L9.14 59.24L11.67 57.45L11.33 56.74L10.99 56.02L8.08 56.83C5.26 52.32 3.51 47.29 2.92 42.01L6.09 41.27L6.05 40.48L6 39.69L2.71 39.31C2.7 38.85 2.69 38.39 2.69 37.93C2.69 32.68 3.82 27.69 5.86 23.2L9.12 24.07L9.45 23.35L9.78 22.63L7.08 20.76C9.77 15.85 13.58 11.64 18.16 8.46L20.4 10.89L21.06 10.46L21.73 10.03L20.44 7C25.47 4.05 31.29 2.29 37.49 2.12L38.06 5.37L38.85 5.37L39.64 5.37L40.2 2.14C46.57 2.43 52.57 4.37 57.71 7.62L56.24 10.67L56.88 11.13L57.53 11.59L59.98 9.18C64.57 12.61 68.34 17.17 70.9 22.58L68.65 24.52L69.06 25.2L69.47 25.88L71.91 24.94L71.91 24.94L72.63 24.66Z" />
						<path id="Path 1536" class="shp0" d="M47.26 29.28L58.2 14.1L58.21 14.09C57.92 13.85 57.62 13.62 57.32 13.39L57.31 13.41L43.93 27.49" />
						<g id="Group 1043">
							<path id="Path 1537" class="shp0" d="M33.68 48.53C29.44 46.87 26.44 42.74 26.44 37.91C26.44 31.62 31.54 26.51 37.84 26.51C41.29 26.51 44.37 28.04 46.46 30.46L47.75 28.64C45.27 25.99 41.75 24.34 37.84 24.34C30.34 24.34 24.26 30.42 24.26 37.91C24.26 43.47 27.61 48.25 32.4 50.35L33.68 48.53Z" />
						</g>
						<path id="Path 1538" class="shp3" d="M39.89 7.2L40.05 16.82C43.38 17.64 46.46 19.11 49.13 21.1L56.42 12.74C51.71 9.44 46.03 7.43 39.89 7.2Z" />
						<path id="Path 1539" class="shp4" d="M37.9 7.19C32.28 7.34 27.03 8.99 22.53 11.76L25.68 17.5C28.29 16.59 31.09 16.1 34.01 16.1C35.39 16.1 36.74 16.21 38.06 16.42L37.9 7.19Z" />
						<path id="Path 1540" class="shp4" d="M14.52 25.27C17.1 22.16 20.4 19.67 24.18 18.08L21.2 12.63C17.08 15.47 13.69 19.28 11.35 23.73L14.52 25.27Z" />
						<path id="Path 1541" class="shp5" d="M8.76 39.92C9.06 34.8 10.87 30.09 13.76 26.23L10.82 24.8C8.89 28.83 7.81 33.34 7.81 38.1C7.81 38.74 7.84 39.37 7.87 40.01L8.76 39.92Z" />
						<path id="Path 1542" class="shp5" d="M8.73 40.72L7.93 40.8C8.19 43.76 8.86 46.6 9.89 49.26L9.99 49.36C9.16 46.86 8.71 44.18 8.71 41.4C8.71 41.17 8.72 40.95 8.73 40.72Z" />
					</g>
				</g>
			</g>
		</g>
	</g>
</svg>