<svg version="1.2" baseProfile="tiny-ps" xmlns="http://www.w3.org/2000/svg" viewBox="0 0 150 62" width="150" height="62">
	<title>About us</title>
	<style>
		tspan { white-space:pre }
		.shp0 { fill: #ffffff } 
		.shp1 { fill: #cc0000 } 
		.shp2 { fill: #000000 } 
		.shp3 { fill: #2a2524 } 
		.shp4 { fill: #333333 } 
		.shp5 { fill: #666666 } 
		.shp6 { fill: #999999 } 
	</style>
	<g id="About us">
		<g id="Group 1053">
			<g id="Group 1046">
				<g id="Group 1040">
					<path id="Rectangle 154" class="shp0" d="M90.7 49.58L91.9 49.58L91.9 61.62L90.7 61.62L90.7 49.58Z" />
					<g id="Group 1036">
						<g id="Group 1024">
							<path id="Path 1497" class="shp1" d="M73.64 57.81L73.46 57.8C73.46 57.8 70.98 58.77 67.88 57.33C64.77 55.89 61.43 58.91 61.43 58.91C61.43 58.91 63.74 57.82 66.38 58.94C69.02 60.06 71.57 60.29 73.64 57.81ZM77.41 50.51C74.73 50.4 74.04 49.71 74.04 49.71C74.04 49.71 75.98 51.88 79.35 51.19C82.72 50.49 85.03 50.76 83.67 52.02C82.3 53.28 80.85 53.69 78.16 52.39C75.47 51.08 72.32 49.52 68.86 50.81C65.41 52.1 63.44 50.7 63.44 50.7C63.44 50.7 64.01 52.7 70.59 52.25C77.17 51.81 74.44 55.81 71.16 54.42C67.88 53.04 62.34 49.76 55.86 53.55C55.86 53.55 60.16 52.18 63.71 54.18C67.27 56.17 70.41 58.21 75.98 56.24C81.55 54.26 84.18 56.93 83.13 57.73C82.09 58.52 78.75 55.52 74.4 58.32C74.4 58.32 77.35 57.61 79.33 58.88C81.3 60.16 83.82 59.84 86.3 58.93C88.48 58.13 89.59 57.7 90.97 58.3C90.85 58.2 90.73 58.1 90.63 57.99C89.97 57.45 89.68 56.87 89.68 56.87C91.33 58.14 92.84 56.43 91.18 55.76C89.52 55.08 88.91 56.74 87.05 57.55C85.19 58.36 84.01 56.91 84.01 56.91C85.67 58.12 88.32 56.25 84.64 54.77C80.96 53.29 76.65 54.96 76.65 54.96C80.08 52.8 82.1 53.01 85.19 53.89C88.28 54.76 89.47 54.66 90.97 53.79C91.71 53.36 91.7 53.06 91.49 52.87C91.25 52.7 90.92 52.64 90.63 52.66C88.73 53.11 86.83 51.82 86.83 51.82C88.07 52.11 89.21 51.8 90.03 51.41C88.91 51.37 86.53 51.14 84.77 49.92C82.39 48.27 80.09 50.62 77.41 50.51ZM62.59 56.08C61.68 56.16 62.76 56.75 56.97 55.32C51.19 53.88 50.32 56.49 50.32 56.49C50.32 56.49 52.07 55.23 56.51 56.35C60.95 57.47 62.59 56.08 62.59 56.08Z" />
						</g>
						<g id="Group 1035">
							<path id="Path 1498" class="shp2" d="M135.31 53.11C135.32 53.14 135.33 53.17 135.33 53.19C135.34 53.19 135.34 53.19 135.34 53.19C135.33 53.16 135.32 53.14 135.31 53.11Z" />
							<path id="Path 1499" class="shp2" d="M135.31 53.11C135.32 53.14 135.33 53.17 135.33 53.19C135.34 53.19 135.34 53.19 135.34 53.19C135.33 53.16 135.32 53.14 135.31 53.11Z" />
							<path id="Path 1500" class="shp3" d="M92.4 59.11L148.5 59.11C148.78 59.11 149 58.92 149 58.69L149 50.12C149 49.89 148.78 49.7 148.5 49.7L92.4 49.7C92.12 49.7 91.9 49.89 91.9 50.12L91.9 58.69C91.9 58.92 92.12 59.11 92.4 59.11Z" />
							<g id="Group 1034">
								<g id="Group 1027">
									<g id="Group 1025">
										<path id="Path 1501" class="shp0" d="M110.1 56.65L109.06 56.65L109.06 53.2C108.56 53.14 107.64 53.06 106.51 53.06C105.37 53.06 104.46 53.14 103.95 53.2L103.95 56.65L102.92 56.65L102.92 52.31L103.35 52.24C103.4 52.23 104.67 52.03 106.51 52.03C108.34 52.03 109.61 52.23 109.66 52.24L110.1 52.31L110.1 56.65Z" />
									</g>
									<g id="Group 1026">
										<path id="Rectangle 155" class="shp0" d="M103.44 53.94L109.58 53.94L109.58 54.97L103.44 54.97L103.44 53.94Z" />
									</g>
								</g>
								<g id="Group 1030">
									<g id="Group 1028">
										<path id="Path 1502" class="shp0" d="M128.07 56.65L127.04 56.65L127.04 53.2C126.54 53.14 125.62 53.06 124.49 53.06C123.35 53.06 122.44 53.14 121.93 53.2L121.93 56.65L120.9 56.65L120.9 52.31L121.33 52.24C121.38 52.23 122.65 52.03 124.49 52.03C126.32 52.03 127.59 52.23 127.64 52.24L128.07 52.31L128.07 56.65Z" />
									</g>
									<g id="Group 1029">
										<path id="Rectangle 156" class="shp0" d="M121.42 53.94L127.56 53.94L127.56 54.97L121.42 54.97L121.42 53.94Z" />
									</g>
								</g>
								<g id="Group 1033">
									<g id="Group 1031">
										<path id="Path 1503" class="shp0" d="M119.29 56.7L118.26 56.7L118.26 53.12C117.7 53.06 116.68 52.97 115.5 52.97C114.32 52.97 113.29 53.06 112.74 53.12L112.74 56.65L111.7 56.65L111.7 52.21L112.15 52.15C112.21 52.14 113.65 51.94 115.5 51.94C117.35 51.94 118.79 52.14 118.85 52.15L119.29 52.21L119.29 56.7Z" />
									</g>
									<g id="Group 1032">
										<path id="Rectangle 157" class="shp0" d="M114.98 52.45L116.01 52.45L116.01 56.66L114.98 56.66L114.98 52.45Z" />
									</g>
								</g>
								<path id="Path 1504" class="shp0" d="M101.31 55.6L101.29 55.49C101.27 55.5 99.73 55.83 97.79 55.83C97.17 55.83 96.59 55.79 96.08 55.75L101.31 53.52L101.31 52.37C100.82 52.28 99.45 52.05 97.79 52.05C96.22 52.05 94.9 52.26 94.35 52.36L94.35 53.41C94.65 53.35 96.06 53.09 97.79 53.09C98.41 53.09 98.99 53.12 99.5 53.17L94.35 55.36L94.35 56.56C94.9 56.66 96.22 56.86 97.79 56.86C99.45 56.86 100.82 56.63 101.31 56.54L101.31 55.6Z" />
								<path id="Path 1505" class="shp0" d="M137.31 55.52L137.3 55.49C137.29 55.5 135.74 55.83 133.81 55.83C132.46 55.83 131.3 55.67 130.72 55.57L130.72 53.35C131.3 53.25 132.46 53.09 133.81 53.09C135.73 53.09 137.28 53.42 137.3 53.42L137.3 53.42L137.31 53.39L137.31 52.37C136.8 52.28 135.45 52.05 133.81 52.05C131.76 52.05 130.16 52.4 130.09 52.41L129.68 52.5L129.68 56.41L130.09 56.5C130.16 56.52 131.76 56.86 133.81 56.86C135.45 56.86 136.8 56.64 137.31 56.54L137.31 55.52Z" />
								<path id="Path 1506" class="shp0" d="M143.04 53.18C144.96 53.18 146.51 53.51 146.54 53.52L146.54 53.52L146.54 53.49L146.54 52.47C146.04 52.37 144.68 52.15 143.04 52.15C141 52.15 139.39 52.5 139.32 52.51L138.92 52.6L138.92 53.93L138.92 54.98L145.51 54.98L145.51 55.47C144.93 55.57 143.76 55.73 142.42 55.73C140.49 55.73 138.94 55.4 138.92 55.4L138.92 55.42L138.92 56.45C139.43 56.54 140.78 56.76 142.42 56.76C144.47 56.76 146.07 56.42 146.14 56.4L146.54 56.32L146.54 54.98L146.54 53.94L146.54 53.93L139.95 53.93L139.95 53.44C140.53 53.34 141.69 53.18 143.04 53.18Z" />
							</g>
						</g>
					</g>
					<g id="Group 1037">
						<path id="Path 1507" class="shp4" d="M125.05 26.35L74.59 26.74L126.83 27.12L125.05 26.35Z" />
						<path id="Path 1508" class="shp4" d="M131.58 22.96L90.48 23.36L133.04 23.78L131.58 22.96Z" />
						<path id="Path 1509" class="shp4" d="M147.21 24.54L111.56 25.05L149 25.59L147.21 24.54Z" />
					</g>
					<path id="Path 1510" class="shp4" d="M72.37 24.88L73.5 24.44L73.5 24.43C70.77 17.41 66.04 11.41 59.84 7.09C53.48 2.67 46.02 0.33 38.25 0.33C17.4 0.33 0.43 17.29 0.43 38.14C0.43 46.19 2.93 53.87 7.64 60.36L8.88 59.46L11.41 57.67L11.07 56.95L10.73 56.24L7.81 57.05C5 52.54 3.25 47.51 2.66 42.23L5.83 41.49L5.79 40.7L5.74 39.91L2.45 39.53C2.43 39.07 2.42 38.61 2.42 38.14C2.42 32.9 3.56 27.91 5.59 23.42L8.86 24.29L9.19 23.57L9.52 22.85L6.81 20.98C9.5 16.07 13.31 11.86 17.89 8.68L20.13 11.11L20.8 10.68L21.46 10.25L20.18 7.22C25.21 4.27 31.02 2.51 37.23 2.34L37.8 5.59L38.59 5.59L39.38 5.59L39.94 2.36C46.31 2.65 52.3 4.59 57.45 7.84L55.98 10.88L56.62 11.35L57.26 11.81L59.71 9.4C64.31 12.83 68.08 17.39 70.63 22.8L68.39 24.74L68.8 25.42L69.2 26.1L71.65 25.15L71.65 25.16L72.37 24.88Z" />
					<path id="Path 1511" class="shp4" d="M46.99 29.5L57.94 14.32L57.95 14.31C57.66 14.07 57.36 13.84 57.06 13.61L57.05 13.63L43.67 27.7" />
					<g id="Group 1038">
						<path id="Path 1512" class="shp4" d="M33.42 48.75C29.18 47.09 26.17 42.96 26.17 38.13C26.17 31.83 31.28 26.73 37.58 26.73C41.02 26.73 44.11 28.26 46.2 30.68L47.49 28.86C45.01 26.21 41.49 24.56 37.58 24.56C30.08 24.56 24 30.63 24 38.13C24 43.69 27.35 48.47 32.13 50.57L33.42 48.75Z" />
					</g>
					<g id="Group 1039">
						<path id="Path 1513" fill-rule="evenodd" class="shp1" d="M35.07 30.39L40.26 30.39C44.72 30.39 46.65 32.54 46.65 37C46.65 40.28 44.98 43.41 42.62 44.78C40.97 45.75 38.4 45.79 38.31 45.79L32.35 45.79L35.07 30.39ZM36.06 42.96L38.81 42.96C42.24 42.96 43.44 39.36 43.44 36.74C43.44 34.32 42.41 33.07 40.24 33.07L37.8 33.07L36.06 42.96Z" />
						<path id="Path 1514" class="shp1" d="M49.43 35.01L51.68 35.01L49.73 45.79L47.48 45.79L49.43 35.01Z" />
						<path id="Path 1515" class="shp1" d="M53.69 35.01L60.85 35.01L60.52 36.87L55.57 36.87L55.15 39.26L59.69 39.26L59.36 41.12L54.83 41.12L54.34 43.93L59.53 43.93L59.2 45.79L51.74 45.79L53.69 35.01Z" />
						<path id="Path 1516" class="shp1" d="M68.99 38.63C68.99 37.35 68.12 36.6 67.01 36.6C64.26 36.6 63.58 39.67 63.58 41.36C63.58 42.86 64.27 44.11 66.13 44.11C67.25 44.11 68.27 43.57 68.63 42.11L70.91 42.11C70.31 44.57 68.66 46.06 66.04 46.06C62.46 46.06 61.33 43.33 61.33 41.26C61.33 38.18 63.18 34.74 67.08 34.74C69.53 34.74 71.24 36.09 71.24 38.63L68.99 38.63Z" />
						<path id="Path 1517" fill-rule="evenodd" class="shp1" d="M76.46 35.01L79.09 35.01L80.46 45.79L78.23 45.79L78.04 43.67L74.24 43.67L73.2 45.79L70.82 45.79L76.46 35.01ZM77.42 37.26L77.39 37.26L75.16 41.81L77.86 41.81L77.42 37.26Z" />
						<path id="Path 1518" class="shp1" d="M87.62 38.13C87.62 37.38 87.26 36.6 85.84 36.6C84.97 36.6 84.27 36.99 84.27 37.82C84.27 38.39 84.48 38.71 86.37 39.43C88.17 40.12 89.16 41.06 89.16 42.67C89.16 44.75 87.75 46.06 85.11 46.06C82.74 46.06 81.12 44.92 81.12 42.43L83.28 42.43C83.31 43.78 84.15 44.2 85.2 44.2C86.18 44.2 87 43.75 87 42.88C87 42.08 86.63 41.77 84.82 41.05C83.2 40.4 82.11 39.64 82.11 38C82.11 35.75 83.89 34.74 85.91 34.74C89.66 34.74 89.75 37.32 89.78 38.13L87.62 38.13Z" />
						<path id="Path 1519" class="shp1" d="M93.49 36.87L90.63 36.87L90.98 35.01L98.62 35.01L98.27 36.87L95.74 36.87L94.12 45.79L91.86 45.79L93.49 36.87Z" />
						<path id="Path 1520" class="shp1" d="M117.12 32.73L108.61 43.11L115.92 43.11L115.49 45.79L104.04 45.79L104.45 43.3L112.98 33.03L106.04 33.03L106.51 30.39L117.45 30.39L117.12 32.73Z" />
						<path id="Path 1521" fill-rule="evenodd" class="shp1" d="M123.69 34.74C127.28 34.74 128.4 37.47 128.4 39.55C128.4 42.62 126.56 46.06 122.65 46.06C119.07 46.06 117.94 43.33 117.94 41.26C117.94 38.18 119.79 34.74 123.69 34.74ZM122.73 44.2C125.48 44.2 126.15 41.14 126.15 39.44C126.15 37.46 124.97 36.6 123.61 36.6C120.87 36.6 120.19 39.67 120.19 41.36C120.19 43.34 121.38 44.2 122.73 44.2Z" />
						<path id="Path 1522" class="shp1" d="M136.03 41.9L136.28 42.61L136.61 40.48L137.55 35.01L139.72 35.01L137.79 45.79L135.46 45.79L132.86 39.22L132.47 38.15L132.28 39.62L131.27 45.79L129.03 45.79L131.02 35.01L133.36 35.01L136.03 41.9Z" />
						<path id="Path 1523" class="shp1" d="M141.84 35.01L149 35.01L148.67 36.87L143.72 36.87L143.3 39.26L147.84 39.26L147.51 41.12L142.98 41.12L142.48 43.93L147.68 43.93L147.35 45.79L139.89 45.79L141.84 35.01Z" />
					</g>
					<path id="Path 1524" class="shp1" d="M39.63 7.42L39.79 17.04C43.12 17.86 46.19 19.33 48.86 21.32L56.16 12.96C51.45 9.66 45.77 7.65 39.63 7.42Z" />
					<path id="Path 1525" class="shp5" d="M37.64 7.41C32.01 7.56 26.76 9.21 22.27 11.98L25.41 17.72C28.02 16.81 30.83 16.31 33.75 16.31C35.13 16.31 36.48 16.43 37.79 16.64L37.64 7.41Z" />
					<path id="Path 1526" class="shp5" d="M14.26 25.49C16.83 22.38 20.14 19.89 23.91 18.3L20.93 12.85C16.82 15.69 13.43 19.5 11.09 23.95L14.26 25.49Z" />
					<path id="Path 1527" class="shp6" d="M8.5 40.14C8.79 35.02 10.61 30.31 13.5 26.45L10.55 25.02C8.63 29.05 7.55 33.55 7.55 38.32C7.55 38.96 7.57 39.59 7.61 40.22L8.5 40.14Z" />
				</g>
			</g>
		</g>
	</g>
</svg>