<svg version="1.2" baseProfile="tiny-ps" xmlns="http://www.w3.org/2000/svg" viewBox="0 0 173 159" width="173" height="159">
	<title>homepage – 1</title>
	<style>
		tspan { white-space:pre }
		.shp0 { fill: none;stroke: #ffffff;stroke-linecap:round;stroke-width: 5 } 
	</style>
	<g id="homepage – 1">
		<g id="Group 894">
			<g id="Group 893">
				<g id="Group 866">
					<g id="Group 865">
						<path id="Path 61" class="shp0" d="M137.35 71.19L110.95 66.68C99.59 64.73 90.84 55.59 89.4 44.15L86.38 20.22L82.97 44.75C81.39 56.12 72.58 65.13 61.26 66.98L35.41 71.19L59.42 73.57C71.45 74.76 81.1 84.04 82.76 96.02L86.38 122.16L89.87 96.16C91.48 84.14 101.14 74.8 113.21 73.6L137.35 71.19Z" />
						<path id="Path 62" class="shp0" d="M152.17 138.78L142.99 125.81C139.04 120.23 139.21 112.73 143.4 107.32L152.17 96.02L140.45 104.88C135.02 108.98 127.55 109.07 122.02 105.09L109.41 96.02L118.49 107.09C123.03 112.63 123.19 120.58 118.86 126.3L109.41 138.78L121.78 129.34C127.5 124.97 135.47 125.1 141.04 129.66L152.17 138.78Z" />
						<path id="Path 63" class="shp0" d="M62.9 131.42L53.72 118.45C49.77 112.87 49.94 105.37 54.13 99.97L62.9 88.66L51.18 97.52C45.75 101.62 38.28 101.71 32.75 97.73L20.14 88.66L29.22 99.73C33.76 105.28 33.92 113.22 29.59 118.94L20.14 131.42L32.51 121.98C38.23 117.61 46.2 117.74 51.77 122.3L62.9 131.42Z" />
					</g>
				</g>
			</g>
		</g>
	</g>
</svg>