<svg version="1.2" baseProfile="tiny-ps" xmlns="http://www.w3.org/2000/svg" viewBox="0 0 130 149" width="130" height="149">
	<title>homepage – 1</title>
	<style>
		tspan { white-space:pre }
		.shp0 { fill: none;stroke: #ffffff;stroke-linecap:round;stroke-width: 5 } 
	</style>
	<g id="homepage – 1">
		<g id="Group 894">
			<g id="Group 893">
				<g id="Group 867">
					<path id="Path 58" class="shp0" d="M114.3 80.94L105.68 85.39C105.68 85.39 87.51 60.35 60.18 83.91C57.08 82.83 56 82.16 51.97 84.31C55.46 72.87 57.48 66.81 55.33 54.96C53.18 43.11 56.54 34.77 56.54 34.77C56.54 34.77 56.27 42.98 58.02 44.32C59.77 45.67 72.56 48.77 79.83 44.73C87.1 40.69 86.56 24.4 79.83 18.61C68.93 13.81 53.31 15.78 49.41 18.61C45.5 21.44 34.06 34.09 24.1 57.38C14.13 80.67 14.94 81.35 15.21 86.6C15.48 91.85 19.12 109.75 21.54 117.29C23.29 118.91 30.69 119.04 33.12 117.29C40.12 121.47 69.74 138.43 99.35 131.56" />
					<path id="Path 59" class="shp0" d="M64.46 96.25C64.46 96.25 58.3 89.59 60.18 83.91" />
					<path id="Path 60" class="shp0" d="M30.74 73.48C30.74 73.48 28.21 77.9 28.37 82.02C28.53 86.13 31.06 101.94 32.64 103.05C34.22 104.16 46.08 110.85 46.08 110.85" />
					<path id="Line 14" class="shp0" d="M91 55.92L89.57 67.15L91 55.92Z" />
					<path id="Line 15" class="shp0" d="M100.8 63.43L96.37 69.48L100.8 63.43Z" />
					<path id="Line 16" class="shp0" d="M78.98 58.61L81.82 66.45L78.98 58.61Z" />
				</g>
			</g>
		</g>
	</g>
</svg>