<svg version="1.2" baseProfile="tiny-ps" xmlns="http://www.w3.org/2000/svg" viewBox="0 0 209 81" width="209" height="81">
	<title>homepage – 1</title>
	<style>
		tspan { white-space:pre }
		.shp0 { fill: #333333 } 
		.shp1 { fill: #cc0000 } 
		.shp2 { fill: #666666 } 
		.shp3 { fill: #999999 } 
	</style>
	<g id="homepage – 1">
		<g id="Group 853">
			<g id="Group 1">
				<path id="Path 1" class="shp0" d="M166.97 35.66L99.77 36.17L169.35 36.69L166.97 35.66Z" />
				<path id="Path 2" class="shp0" d="M175.67 31.14L120.92 31.68L177.62 32.24L175.67 31.14Z" />
				<path id="Path 3" class="shp0" d="M196.49 33.25L149 33.93L198.87 34.65L196.49 33.25Z" />
			</g>
			<g id="Group 2">
				<path id="Path 4" class="shp0" d="M208.36 67.28L96.84 67.95L206.61 68.61L208.36 67.28Z" />
				<path id="Path 5" class="shp0" d="M164.25 69.97L113 70.78L161.79 71.58L164.25 69.97Z" />
			</g>
			<path id="Path 6" class="shp0" d="M96.8 33.69L98.32 33.11L98.31 33.1C94.67 23.75 88.38 15.76 80.12 10.01C71.65 4.11 61.71 1 51.36 1C23.59 1 1 23.59 1 51.36C1 62.08 4.32 72.31 10.6 80.95L12.24 79.76L15.61 77.37L15.16 76.42L14.71 75.47L10.83 76.55C7.08 70.53 4.75 63.83 3.96 56.81L8.19 55.82L8.13 54.77L8.07 53.71L3.69 53.21C3.66 52.6 3.65 51.98 3.65 51.36C3.65 44.38 5.16 37.74 7.87 31.75L12.22 32.91L12.66 31.95L13.1 31L9.5 28.5C13.08 21.96 18.15 16.35 24.25 12.12L27.24 15.35L28.12 14.78L29.01 14.21L27.3 10.18C34 6.25 41.74 3.9 50 3.67L50.76 8.01L51.82 8.01L52.87 8.01L53.61 3.7C62.1 4.09 70.08 6.67 76.93 11L74.98 15.06L75.83 15.67L76.69 16.29L79.95 13.08C86.07 17.65 91.1 23.72 94.5 30.93L91.51 33.52L92.05 34.42L92.59 35.32L95.85 34.06L95.85 34.07L96.8 33.69Z" />
			<path id="Path 7" class="shp0" d="M63.01 39.85L77.59 19.63L77.6 19.61C77.21 19.3 76.82 18.99 76.42 18.69L76.41 18.71L58.59 37.46" />
			<g id="Group 3">
				<path id="Path 8" class="shp0" d="M44.93 65.49C39.28 63.28 35.28 57.78 35.28 51.35C35.28 42.96 42.08 36.16 50.47 36.16C55.06 36.16 59.17 38.2 61.96 41.42L63.67 39C60.37 35.47 55.68 33.27 50.47 33.27C40.48 33.27 32.39 41.36 32.39 51.35C32.39 58.75 36.84 65.12 43.22 67.91L44.93 65.49Z" />
			</g>
			<path id="Path 9" class="shp1" d="M53.21 10.44L53.42 23.26C57.85 24.35 61.95 26.31 65.5 28.96L75.22 17.82C68.94 13.43 61.38 10.75 53.21 10.44Z" />
			<path id="Path 10" class="shp2" d="M50.55 10.43C43.06 10.63 36.07 12.83 30.08 16.52L34.27 24.17C37.75 22.95 41.48 22.29 45.37 22.29C47.21 22.29 49 22.44 50.76 22.72L50.55 10.43Z" />
			<path id="Path 11" class="shp2" d="M19.41 34.51C22.84 30.37 27.24 27.06 32.27 24.93L28.3 17.68C22.82 21.46 18.31 26.53 15.19 32.46L19.41 34.51Z" />
			<path id="Path 12" class="shp3" d="M11.74 54.02C12.13 47.2 14.55 40.93 18.4 35.79L14.48 33.88C11.92 39.25 10.48 45.25 10.48 51.59C10.48 52.45 10.51 53.29 10.56 54.13L11.74 54.02Z" />
			<path id="Path 13" class="shp3" d="M11.69 55.09L10.64 55.19C10.98 59.13 11.87 62.92 13.25 66.46L13.38 66.59C12.27 63.26 11.68 59.69 11.68 55.99C11.68 55.69 11.69 55.39 11.69 55.09Z" />
			<g id="Group 4">
				<path id="Path 14" fill-rule="evenodd" class="shp1" d="M48.65 42.78L55.55 42.78C58.12 42.78 60.08 43.32 61.41 44.41C62.73 45.49 63.4 47.09 63.4 49.19C63.39 49.63 63.36 50.09 63.31 50.58C63.25 51.07 63.18 51.57 63.07 52.08C62.32 55.67 61.1 58.23 59.41 59.76C57.73 61.29 55.27 62.06 52.04 62.06L44.66 62.06L48.65 42.78ZM49.34 58.86L52.7 58.86C54.46 58.86 55.8 58.42 56.72 57.55C57.65 56.67 58.32 55.21 58.75 53.17C58.87 52.56 58.96 52.02 59.02 51.53C59.07 51.05 59.11 50.58 59.12 50.14C59.11 48.73 58.76 47.7 58.08 47.04C57.39 46.38 56.32 46.05 54.87 46.05L51.99 46.05L49.34 58.86Z" />
				<path id="Path 15" class="shp1" d="M66 48.56L67.41 48.56L68.81 48.56L66.02 62.06L64.62 62.06L63.21 62.06L66 48.56Z" />
				<path id="Path 16" class="shp1" d="M68.66 62.06L71.45 48.56L81.41 48.56L81.18 49.77L80.95 50.97L73.77 50.97L73.18 53.77L79.81 53.77L79.57 54.97L79.32 56.17L72.68 56.17L71.97 59.65L79.47 59.65L79.2 60.85L78.93 62.06L68.66 62.06Z" />
				<path id="Path 17" class="shp1" d="M93.52 57.47C92.99 58.98 92.13 60.18 90.92 61.06C89.72 61.95 88.36 62.4 86.84 62.4C85.26 62.4 84.02 61.96 83.12 61.1C82.23 60.23 81.78 59.03 81.78 57.49C81.78 57.19 81.81 56.85 81.85 56.47C81.89 56.1 81.95 55.72 82.03 55.36C82.48 53.17 83.39 51.44 84.76 50.15C86.12 48.87 87.75 48.22 89.63 48.22C91.35 48.22 92.62 48.63 93.45 49.45C94.2 50.17 94.57 51.2 94.57 52.51L94.55 53.02L91.75 53.02C91.7 52.14 91.49 51.52 91.12 51.17C90.74 50.81 90.12 50.63 89.26 50.63C88.21 50.63 87.3 51.06 86.52 51.91C85.73 52.76 85.19 53.9 84.89 55.35C84.83 55.63 84.78 55.91 84.75 56.2C84.72 56.49 84.71 56.75 84.71 56.98C84.71 57.92 84.94 58.66 85.4 59.19C85.86 59.72 86.5 59.99 87.32 59.99C88.07 59.99 88.75 59.76 89.37 59.3C89.99 58.84 90.44 58.23 90.71 57.47L93.52 57.47Z" />
				<path id="Path 18" fill-rule="evenodd" class="shp1" d="M101.44 48.56L104.69 48.56L106.58 62.06L103.5 62.06L103.2 59.23L98.2 59.23L96.7 62.06L93.72 62.06L101.44 48.56ZM99.43 57L102.97 57L102.36 51.55L99.43 57ZM102.36 51.55L102.37 51.54L102.36 51.54L102.36 51.55Z" />
				<path id="Path 19" class="shp1" d="M117.64 52.61C117.64 51.84 117.47 51.3 117.13 50.98C116.79 50.67 116.21 50.51 115.39 50.51C114.72 50.51 114.17 50.67 113.74 50.98C113.31 51.3 113.04 51.74 112.93 52.3C112.84 52.74 112.97 53.07 113.33 53.29C113.68 53.51 114.44 53.76 115.63 54.03C117.41 54.44 118.57 54.92 119.1 55.48C119.48 55.86 119.67 56.4 119.67 57.1C119.67 57.44 119.62 57.81 119.54 58.21C119.27 59.52 118.56 60.55 117.42 61.29C116.3 62.03 114.87 62.4 113.13 62.4C111.39 62.4 110.13 62.02 109.35 61.27C108.74 60.67 108.43 59.83 108.44 58.74C108.43 58.47 108.45 58.18 108.49 57.87L111.19 57.87C111.09 58.63 111.23 59.19 111.6 59.56C111.98 59.93 112.6 60.11 113.46 60.11C114.32 60.11 115.02 59.96 115.56 59.65C116.11 59.35 116.43 58.92 116.53 58.38C116.64 57.89 116.53 57.53 116.22 57.29C115.93 57.07 115.25 56.83 114.21 56.6C112.29 56.15 111.04 55.66 110.46 55.1C110.04 54.71 109.83 54.16 109.83 53.45C109.83 53.15 109.86 52.83 109.94 52.47C110.21 51.14 110.89 50.1 111.97 49.35C113.05 48.6 114.41 48.22 116.05 48.22C117.62 48.22 118.78 48.6 119.5 49.34C120.11 49.96 120.41 50.8 120.42 51.89L120.37 52.61L117.64 52.61Z" />
				<path id="Path 20" class="shp1" d="M126.22 50.97L122.09 50.97L122.35 49.77L122.62 48.56L133.63 48.56L133.4 49.77L133.17 50.97L129.03 50.97L126.74 62.06L125.33 62.06L123.92 62.06L126.22 50.97Z" />
				<path id="Path 21" class="shp1" d="M139.71 58.9L152.36 46.22L142.68 46.22L143.06 44.5L143.44 42.78L158.14 42.78L157.81 44.36L157.49 45.94L144.83 58.62L154.82 58.62L154.44 60.34L154.06 62.06L139.07 62.06L139.38 60.48L139.71 58.9Z" />
				<path id="Path 22" fill-rule="evenodd" class="shp1" d="M158.21 61.08C157.28 60.21 156.81 58.99 156.81 57.44C156.81 57.13 156.83 56.8 156.87 56.43C156.91 56.06 156.96 55.71 157.04 55.36C157.49 53.17 158.43 51.44 159.87 50.15C161.3 48.87 163.01 48.22 165 48.22C166.65 48.22 167.94 48.67 168.87 49.55C169.8 50.44 170.26 51.66 170.26 53.23C170.26 53.53 170.23 53.87 170.2 54.25C170.16 54.63 170.1 55 170.03 55.36C169.58 57.52 168.64 59.23 167.2 60.5C165.77 61.76 164.07 62.4 162.08 62.4C160.43 62.4 159.14 61.96 158.21 61.08ZM165.47 58.77C166.3 57.93 166.86 56.78 167.16 55.35C167.21 55.08 167.26 54.8 167.29 54.51C167.32 54.22 167.34 53.96 167.34 53.72C167.34 52.74 167.09 51.97 166.59 51.41C166.09 50.86 165.4 50.58 164.52 50.58C163.4 50.58 162.43 51.01 161.6 51.87C160.77 52.73 160.21 53.88 159.91 55.35C159.85 55.62 159.81 55.9 159.78 56.18C159.74 56.46 159.72 56.71 159.72 56.93C159.72 57.91 159.98 58.67 160.48 59.22C160.98 59.76 161.68 60.04 162.56 60.04C163.68 60.04 164.64 59.62 165.47 58.77Z" />
				<path id="Path 23" class="shp1" d="M173.34 62.06L172.03 62.06L170.71 62.06L173.5 48.56L174.98 48.56L176.46 48.56L179.94 58.12L181.93 48.56L183.24 48.56L184.55 48.56L181.76 62.06L180.37 62.06L178.96 62.06L175.33 52.36L173.34 62.06Z" />
				<path id="Path 24" class="shp1" d="M184.43 62.06L187.22 48.56L197.17 48.56L196.94 49.77L196.71 50.97L189.53 50.97L188.94 53.77L195.58 53.77L195.33 54.97L195.08 56.17L188.44 56.17L187.73 59.65L195.23 59.65L194.96 60.85L194.7 62.06L184.43 62.06Z" />
			</g>
			<g id="Group 5">
				<path id="Path 25" class="shp1" d="M173.92 15.67C175.01 14.55 176.39 14 178.08 14C180.33 14 181.97 14.74 183.02 16.24C183.59 17.08 183.9 17.92 183.94 18.76L181.11 18.76C180.93 18.11 180.7 17.62 180.42 17.29C179.92 16.7 179.17 16.41 178.18 16.41C177.18 16.41 176.38 16.83 175.8 17.65C175.22 18.48 174.93 19.66 174.93 21.17C174.93 22.69 175.24 23.83 175.85 24.58C176.46 25.34 177.24 25.72 178.19 25.72C179.16 25.72 179.9 25.39 180.4 24.74C180.69 24.4 180.92 23.87 181.11 23.18L183.91 23.18C183.67 24.65 183.05 25.85 182.06 26.77C181.06 27.7 179.79 28.16 178.23 28.16C176.3 28.16 174.79 27.53 173.69 26.29C172.59 25.03 172.04 23.31 172.04 21.13C172.04 18.77 172.66 16.95 173.92 15.67Z" />
				<path id="Path 26" class="shp1" d="M187.49 15.67C188.58 14.55 189.97 14 191.65 14C193.9 14 195.55 14.74 196.59 16.24C197.16 17.08 197.47 17.92 197.52 18.76L194.69 18.76C194.51 18.11 194.28 17.62 194 17.29C193.49 16.7 192.75 16.41 191.76 16.41C190.75 16.41 189.96 16.83 189.37 17.65C188.79 18.48 188.5 19.66 188.5 21.17C188.5 22.69 188.81 23.83 189.42 24.58C190.04 25.34 190.82 25.72 191.76 25.72C192.73 25.72 193.47 25.39 193.98 24.74C194.26 24.4 194.49 23.87 194.68 23.18L197.49 23.18C197.25 24.65 196.63 25.85 195.63 26.77C194.63 27.7 193.36 28.16 191.8 28.16C189.88 28.16 188.37 27.53 187.26 26.29C186.16 25.03 185.61 23.31 185.61 21.13C185.61 18.77 186.24 16.95 187.49 15.67Z" />
			</g>
		</g>
	</g>
</svg>