<svg xmlns="http://www.w3.org/2000/svg" xmlns:xlink="http://www.w3.org/1999/xlink" width="183.215" height="159.11" viewBox="0 0 183.215 159.11">
  <defs>
    <linearGradient id="linear-gradient" y1="0.5" x2="1" y2="0.5" gradientUnits="objectBoundingBox">
      <stop offset="0" stop-color="#ffb800"/>
      <stop offset="1" stop-color="#f07"/>
    </linearGradient>
    <linearGradient id="linear-gradient-2" y1="0.5" x2="1" y2="0.5" gradientUnits="objectBoundingBox">
      <stop offset="0" stop-color="#f2a322"/>
      <stop offset="1" stop-color="#ffc90d"/>
    </linearGradient>
  </defs>
  <g id="Group_167" data-name="Group 167" transform="translate(-45.898 -105.643)">
    <path id="Path_83" data-name="Path 83" d="M147.514,382.115q4.621.028,9.243.052A15.582,15.582,0,0,1,161.9,383a10.616,10.616,0,0,1,4.083,2.577,11.846,11.846,0,0,1,2.68,4.5,19.337,19.337,0,0,1,.934,6.46,16.317,16.317,0,0,1-1.029,6.019,9.908,9.908,0,0,1-2.743,3.945,8.42,8.42,0,0,1-4.11,1.859,13.861,13.861,0,0,1-5.093-.166q-4.564-.931-9.106-1.995Zm8.915,19.962a5.2,5.2,0,0,0,4.839-1.265A7,7,0,0,0,163,395.79a10.592,10.592,0,0,0-.38-2.988,6.617,6.617,0,0,0-1.2-2.352,5.739,5.739,0,0,0-2.029-1.579,7.676,7.676,0,0,0-2.917-.664l-2.594-.136q-.02,6.8-.04,13.592Q155.138,401.873,156.429,402.077Zm16.651-19.833,6.392.024-.189,29.722q-3.2-.418-6.387-.9Q172.987,396.665,173.079,382.243Zm10.726.038q8.669.027,17.338.041-.014,3.644-.028,7.287-5.479-.086-10.955-.219-.013,2.387-.026,4.774,4.5.175,9.008.3l-.029,6.832q-4.51-.19-9.016-.457-.015,2.642-.029,5.284,5.865.442,11.741.718-.014,3.649-.028,7.3-9.1-.55-18.161-1.612Q183.713,397.4,183.805,382.281Zm42.869,26.389c-2.731,4.6-6.333,6.914-10.794,6.837a10.511,10.511,0,0,1-5.124-1.386,12.608,12.608,0,0,1-3.969-3.614,17.6,17.6,0,0,1-2.56-5.38,25.3,25.3,0,0,1,.027-13.484,17.254,17.254,0,0,1,2.584-5.346,12.3,12.3,0,0,1,3.984-3.552,10.372,10.372,0,0,1,5.1-1.28,12.283,12.283,0,0,1,5.815,1.408,11.213,11.213,0,0,1,4.521,4.9q-2.113,2.868-4.23,5.737a9.652,9.652,0,0,0-2.425-2.963,5.073,5.073,0,0,0-3.219-1.125,5.41,5.41,0,0,0-2.714.665,5.928,5.928,0,0,0-2.011,1.872,9.291,9.291,0,0,0-1.255,2.812,14.315,14.315,0,0,0,0,7.075,9.53,9.53,0,0,0,1.282,2.878,6.313,6.313,0,0,0,2.011,1.926,5.181,5.181,0,0,0,2.631.718,5.469,5.469,0,0,0,3.431-.968,10.621,10.621,0,0,0,2.6-3.13Q224.51,405.981,226.674,408.67Zm9.543-26.34,7.333-.011c2.886,10.54,5.787,20.887,8.694,30.93q-3.461.332-6.926.589-.795-3.2-1.588-6.432-4.043.225-8.09.368l-1.58,6.7q-3.325.131-6.652.193C230.363,403.837,233.3,393.017,236.217,382.33Zm6.182,19.012q-1.364-5.772-2.723-11.609-1.372,5.875-2.749,11.8Q239.663,401.451,242.4,401.342Zm14.206,1.8a9.248,9.248,0,0,0,2.654,2.1,6,6,0,0,0,3.585.687,4.71,4.71,0,0,0,.975-.213,2.927,2.927,0,0,0,.9-.473,2.4,2.4,0,0,0,.645-.776,2.44,2.44,0,0,0,.246-1.173,2.111,2.111,0,0,0-.969-1.81,11.5,11.5,0,0,0-2.809-1.282q-.67-.218-1.341-.44a12.242,12.242,0,0,1-2.266-1.023,8.628,8.628,0,0,1-2.053-1.636,7.8,7.8,0,0,1-1.478-2.362,8.69,8.69,0,0,1-.579-3.273,12.331,12.331,0,0,1,.592-3.955,9.355,9.355,0,0,1,1.77-3.193,7.892,7.892,0,0,1,2.9-2.112,9.962,9.962,0,0,1,4-.747,12.291,12.291,0,0,1,3.217.395,13.132,13.132,0,0,1,2.534.949A10.051,10.051,0,0,1,270.974,384a8.2,8.2,0,0,1,1.163,1.136q-1.609,2.464-3.218,5.01a13.167,13.167,0,0,0-2.648-1.756,5.934,5.934,0,0,0-2.821-.646,3.444,3.444,0,0,0-.938.159,2.825,2.825,0,0,0-.846.426,2.118,2.118,0,0,0-.61.714,2.2,2.2,0,0,0-.228,1.065,2.346,2.346,0,0,0,.278,1.159,2.539,2.539,0,0,0,.746.822,5.06,5.06,0,0,0,1.142.6q.67.258,1.43.529l1.159.38q1.23.418,2.5.969a7.492,7.492,0,0,1,3.96,4.007,9.473,9.473,0,0,1,.673,3.748,9.132,9.132,0,0,1-.752,3.721,10.954,10.954,0,0,1-2.072,3.167,11.527,11.527,0,0,1-3.09,2.335,11.369,11.369,0,0,1-3.8,1.209,12.35,12.35,0,0,1-6.064-.466,10.533,10.533,0,0,1-4.164-2.887Q254.687,406.243,256.6,403.143Zm24.754-14.7q-3.7.176-7.394.33-.02-3.274-.04-6.547,10.6-.046,21.2-.11v5.6q-3.653.214-7.31.406.032,9.847.064,19.695-3.2.672-6.412,1.279Q281.411,398.768,281.359,388.443Z" transform="translate(-81.117 -220.18)" fill="url(#linear-gradient)"/>
    <path id="Path_84" data-name="Path 84" d="M362.575,575.058H366.6a7.647,7.647,0,0,1,2.24.314,4.93,4.93,0,0,1,1.785.959,4.36,4.36,0,0,1,1.179,1.651,6.077,6.077,0,0,1,.424,2.374,5.527,5.527,0,0,1-.432,2.272,4.576,4.576,0,0,1-1.187,1.619,4.941,4.941,0,0,1-1.792.975,7.489,7.489,0,0,1-2.233.322h-4.009Zm3.915,8.033a2.631,2.631,0,0,0,2.861-2.8,3.543,3.543,0,0,0-.173-1.14,2.345,2.345,0,0,0-.527-.881,2.393,2.393,0,0,0-.888-.574,3.569,3.569,0,0,0-1.273-.2h-1.132v5.6Zm7.216-8.033h7.546v2.405h-4.764v1.619H380.4v2.264h-3.915v1.792h5.094v2.405h-7.876Zm18.645,8.537a5.7,5.7,0,0,1-4.669,2.217,5.835,5.835,0,0,1-2.217-.409,4.986,4.986,0,0,1-2.838-2.861,5.935,5.935,0,0,1-.4-2.217,6.061,6.061,0,0,1,.393-2.209,5.2,5.2,0,0,1,1.116-1.761,5.085,5.085,0,0,1,1.729-1.163,5.741,5.741,0,0,1,2.217-.417,6.882,6.882,0,0,1,2.531.456,4.33,4.33,0,0,1,1.965,1.588l-1.839,1.855a3.53,3.53,0,0,0-1.053-.959,2.7,2.7,0,0,0-1.4-.362,3,3,0,0,0-1.179.22,2.441,2.441,0,0,0-.872.613,2.742,2.742,0,0,0-.542.92,3.54,3.54,0,0,0,.008,2.3,2.753,2.753,0,0,0,.558.928,2.529,2.529,0,0,0,.872.613,2.851,2.851,0,0,0,1.14.22,3.016,3.016,0,0,0,1.486-.322,3.955,3.955,0,0,0,1.124-1.014Zm4.166-8.537h3.192l3.71,10.486h-3l-.676-2.169h-3.506l-.692,2.169h-2.877Zm2.657,6.288-1.163-3.852-1.21,3.852Zm5.345-6.288H407.3v8.033h4.858v2.452h-7.64Zm10.03,7.169a4.508,4.508,0,0,0,1.147.8,3.367,3.367,0,0,0,1.556.361,2.415,2.415,0,0,0,.425-.039,1.282,1.282,0,0,0,.393-.134.819.819,0,0,0,.283-.252.7.7,0,0,0,.11-.409.787.787,0,0,0-.417-.676,5.65,5.65,0,0,0-1.218-.535l-.582-.189a6.719,6.719,0,0,1-.982-.409,4.064,4.064,0,0,1-.888-.605,2.836,2.836,0,0,1-.637-.833,2.449,2.449,0,0,1-.244-1.124,3.364,3.364,0,0,1,.267-1.344,3.11,3.11,0,0,1,.778-1.084,3.59,3.59,0,0,1,1.265-.723,5.364,5.364,0,0,1,1.745-.259,6.384,6.384,0,0,1,1.4.142,6.221,6.221,0,0,1,1.1.346,4.386,4.386,0,0,1,.8.44,3.272,3.272,0,0,1,.5.425l-1.415,1.792a5.8,5.8,0,0,0-1.147-.668,3.05,3.05,0,0,0-1.226-.259,1.806,1.806,0,0,0-.408.047,1.357,1.357,0,0,0-.37.141.8.8,0,0,0-.267.244.638.638,0,0,0-.1.369.709.709,0,0,0,.118.409,1.041,1.041,0,0,0,.322.3,2.56,2.56,0,0,0,.5.228q.291.1.621.212l.5.157q.534.173,1.085.4a3.575,3.575,0,0,1,.991.613,3.047,3.047,0,0,1,.723.959,3.159,3.159,0,0,1,.283,1.407,2.724,2.724,0,0,1-.338,1.336,3.369,3.369,0,0,1-.912,1.053,4.312,4.312,0,0,1-1.352.684,5.523,5.523,0,0,1-1.658.244,7.249,7.249,0,0,1-2.633-.417,5.443,5.443,0,0,1-1.8-1.124Z" transform="translate(-252.793 -374.493)" fill="url(#linear-gradient-2)"/>
    <path id="Path_85" data-name="Path 85" d="M688.087,568.072l10.419,33.263-29.254-21.641V569.621L683.879,580.3l-3.607-12.022Z" transform="translate(-497.603 -369.142)" fill="#4d4d4d"/>
    <path id="Path_86" data-name="Path 86" d="M204.951,580.83l-10.419,33.263,29.254-21.641V582.379l-14.627,10.675,3.607-12.022Z" transform="translate(-118.65 -379.326)" fill="#4d4d4d"/>
    <path id="Path_87" data-name="Path 87" d="M149.834,143.955l-12.4-38.312L125.176,144l-79.278.14,13.464,10.366,73.626-.13,4.536-13.381,4.532,13.365,73.63-.13,13.427-10.414Z" fill="#4d4d4d"/>
    <path id="Path_88" data-name="Path 88" d="M503.032,672.128,545.738,704.1l-14.757-48.08-10.661.211,5.543,18.868-23.054-17.027" transform="translate(-364.737 -439.35)" fill="#4d4d4d"/>
    <path id="Path_89" data-name="Path 89" d="M328.454,653.678l-23.88,17.383,6.5-20.484-10.874-.063-15.811,48.713,44.285-31.5" transform="translate(-190.382 -434.953)" fill="#4d4d4d"/>
  </g>
</svg>
