<?xml version="1.0" encoding="utf-8"?>
<!-- Generator: Adobe Illustrator 25.0.0, SVG Export Plug-In . SVG Version: 6.00 Build 0)  -->
<svg version="1.1" id="Layer_1" xmlns="http://www.w3.org/2000/svg" xmlns:xlink="http://www.w3.org/1999/xlink" x="0px" y="0px"
	 viewBox="0 0 39.4 39.4" style="enable-background:new 0 0 39.4 39.4;" xml:space="preserve">
<style type="text/css">
	.st0{fill:none;stroke:#D7544C;stroke-miterlimit:10;}
	.st1{fill:#D7544C;}
</style>
<g>
	<path class="st0" d="M25.4,24.3"/>
	<path class="st0" d="M33.2,17.2V7.5c0-0.7-0.6-1.3-1.3-1.3H4.5c-0.7,0-1.3,0.6-1.3,1.3v19.4c0,0.7,0.6,1.3,1.3,1.3h19.4"/>
	<rect x="6.2" y="11.2" class="st0" width="2" height="5"/>
	<rect x="8.2" y="11.2" class="st0" width="4" height="5"/>
	<circle class="st0" cx="23.2" cy="13.2" r="3"/>
	<circle class="st0" cx="26.2" cy="13.2" r="3"/>
	<g>
		<path class="st1" d="M31.7,18c0.2,0,0.3,0.1,0.5,0.1c1.9,0.5,3.1,2.1,3.1,4.1c0,0.6,0,1.3,0,1.9c0.1,0,0.2,0,0.2,0
			c0.6,0.1,1.1,0.6,1.1,1.3c0,0.6,0,1.2,0,1.9c0,1.6,0,3.2,0,4.9c0,1-0.5,1.5-1.5,1.5c-2.6,0-5.3,0-7.9,0c-0.7,0-1.3-0.4-1.4-1.1
			c0-0.2,0-0.3,0-0.5c0-2.1,0-4.2,0-6.3c0-0.9,0.3-1.6,1.4-1.7c0-0.1,0-0.2,0-0.3c0-0.8,0-1.6,0.1-2.4c0.2-1.7,1.7-3.1,3.4-3.4
			c0.1,0,0.1,0,0.2-0.1C31.1,18,31.4,18,31.7,18z M35.3,25.5c-2.7,0-5.4,0-8.2,0c0,2.3,0,4.5,0,6.8c2.7,0,5.4,0,8.2,0
			C35.3,30.1,35.3,27.8,35.3,25.5z M34,24.2C34,24.1,34,24.1,34,24.2c0-0.9,0.1-1.6,0-2.4c-0.1-1.3-1.3-2.4-2.7-2.4
			c-1.4,0-2.6,1-2.7,2.3c-0.1,0.8,0,1.6,0,2.4l0,0C30.4,24.2,32.1,24.2,34,24.2z"/>
		<path class="st1" d="M31.2,26.9c0.6,0,1.2,0.4,1.3,0.9c0.2,0.6,0.1,1.2-0.4,1.5c-0.1,0.1-0.2,0.2-0.2,0.4c0,0.2,0,0.4,0,0.6
			c0,0.4-0.3,0.7-0.7,0.7c-0.4,0-0.7-0.3-0.7-0.7c0-0.1,0-0.2,0-0.2c0-0.4,0-0.7-0.3-0.9c-0.4-0.4-0.5-0.9-0.2-1.4
			C30.3,27.2,30.7,26.9,31.2,26.9z"/>
	</g>
	<rect x="6.2" y="23.7" class="st1" width="18" height="0.9"/>
	<rect x="6.2" y="20.5" class="st1" width="4.7" height="0.9"/>
	<rect x="12.8" y="20.5" class="st1" width="5.7" height="0.9"/>
	<rect x="19.5" y="20.5" class="st1" width="4.7" height="0.9"/>
</g>
</svg>
