<svg version="1.2" baseProfile="tiny-ps" xmlns="http://www.w3.org/2000/svg" viewBox="0 0 149 67" width="149" height="67">
	<title>About us</title>
	<style>
		tspan { white-space:pre }
		.shp0 { fill: #000000 } 
		.shp1 { fill: #333333 } 
		.shp2 { fill: #cc0000 } 
		.shp3 { fill: #666666 } 
		.shp4 { fill: #999999 } 
		.shp5 { fill: #008a4a } 
		.shp6 { fill: #ffffff } 
	</style>
	<g id="About us">
		<g id="Group 1053">
			<g id="Group 1046">
				<g id="Group 1023">
					<path id="Path 1455" class="shp0" d="M135.25 53.31C135.26 53.34 135.27 53.37 135.27 53.4C135.27 53.4 135.28 53.39 135.28 53.39C135.27 53.36 135.26 53.34 135.25 53.31Z" />
					<path id="Path 1456" class="shp0" d="M135.25 53.31C135.26 53.34 135.27 53.37 135.27 53.4C135.27 53.4 135.28 53.39 135.28 53.39C135.27 53.36 135.26 53.34 135.25 53.31Z" />
					<g id="Group 1015">
						<path id="Path 1457" class="shp1" d="M129.18 63.22L45.45 63.72L127.87 64.22L129.18 63.22Z" />
						<path id="Path 1458" class="shp1" d="M96.06 65.24L57.58 65.85L94.22 66.45L96.06 65.24Z" />
					</g>
					<g id="Group 1016">
						<path id="Path 1459" class="shp1" d="M124.99 26.55L74.53 26.94L126.77 27.33L124.99 26.55Z" />
						<path id="Path 1460" class="shp1" d="M131.52 23.16L90.41 23.57L132.98 23.99L131.52 23.16Z" />
						<path id="Path 1461" class="shp1" d="M147.15 24.74L111.5 25.26L148.94 25.8L147.15 24.74Z" />
					</g>
					<g id="Group 1017">
						<path id="Path 1462" fill-rule="evenodd" class="shp2" d="M35.01 30.6L40.2 30.6C44.66 30.6 46.59 32.74 46.59 37.2C46.59 40.48 44.92 43.61 42.56 44.99C40.91 45.95 38.34 45.99 38.25 45.99L32.29 45.99L35.01 30.6ZM36 43.16L38.74 43.16C42.18 43.16 43.38 39.56 43.38 36.94C43.38 34.52 42.35 33.28 40.18 33.28L37.74 33.28L36 43.16Z" />
						<path id="Path 1463" class="shp2" d="M49.37 35.22L51.62 35.22L49.67 45.99L47.41 45.99L49.37 35.22Z" />
						<path id="Path 1464" class="shp2" d="M53.63 35.22L60.79 35.22L60.46 37.08L55.51 37.08L55.09 39.46L59.63 39.46L59.3 41.33L54.77 41.33L54.27 44.13L59.47 44.13L59.14 45.99L51.68 45.99L53.63 35.22Z" />
						<path id="Path 1465" class="shp2" d="M68.93 38.83C68.93 37.56 68.06 36.81 66.94 36.81C64.2 36.81 63.52 39.87 63.52 41.57C63.52 43.07 64.21 44.31 66.07 44.31C67.18 44.31 68.21 43.77 68.57 42.32L70.85 42.32C70.25 44.78 68.6 46.26 65.98 46.26C62.4 46.26 61.27 43.53 61.27 41.46C61.27 38.38 63.12 34.95 67.02 34.95C69.47 34.95 71.18 36.3 71.18 38.83L68.93 38.83Z" />
						<path id="Path 1466" fill-rule="evenodd" class="shp2" d="M76.4 35.22L79.03 35.22L80.39 45.99L78.17 45.99L77.98 43.88L74.18 43.88L73.14 45.99L70.76 45.99L76.4 35.22ZM77.36 37.47L77.33 37.47L75.1 42.02L77.8 42.02L77.36 37.47Z" />
						<path id="Path 1467" class="shp2" d="M87.56 38.34C87.56 37.59 87.2 36.81 85.78 36.81C84.91 36.81 84.21 37.2 84.21 38.02C84.21 38.59 84.42 38.91 86.31 39.63C88.11 40.32 89.1 41.27 89.1 42.87C89.1 44.96 87.69 46.26 85.05 46.26C82.68 46.26 81.06 45.12 81.06 42.63L83.22 42.63C83.25 43.98 84.09 44.4 85.14 44.4C86.11 44.4 86.94 43.95 86.94 43.08C86.94 42.29 86.56 41.97 84.76 41.25C83.14 40.61 82.05 39.84 82.05 38.2C82.05 35.95 83.83 34.95 85.84 34.95C89.6 34.95 89.69 37.53 89.72 38.34L87.56 38.34Z" />
						<path id="Path 1468" class="shp2" d="M93.43 37.08L90.57 37.08L90.92 35.22L98.56 35.22L98.21 37.08L95.68 37.08L94.06 45.99L91.8 45.99L93.43 37.08Z" />
						<path id="Path 1469" class="shp2" d="M117.06 32.93L108.55 43.31L115.86 43.31L115.43 45.99L103.98 45.99L104.39 43.51L112.92 33.23L105.98 33.23L106.45 30.6L117.39 30.6L117.06 32.93Z" />
						<path id="Path 1470" fill-rule="evenodd" class="shp2" d="M123.63 34.95C127.22 34.95 128.34 37.68 128.34 39.75C128.34 42.83 126.5 46.26 122.59 46.26C119.01 46.26 117.88 43.53 117.88 41.46C117.88 38.38 119.73 34.95 123.63 34.95ZM122.67 44.4C125.42 44.4 126.09 41.34 126.09 39.64C126.09 37.66 124.9 36.81 123.55 36.81C120.81 36.81 120.13 39.87 120.13 41.57C120.13 43.55 121.32 44.4 122.67 44.4Z" />
						<path id="Path 1471" class="shp2" d="M135.97 42.11L136.22 42.81L136.55 40.68L137.48 35.22L139.66 35.22L137.72 45.99L135.4 45.99L132.8 39.42L132.41 38.35L132.22 39.82L131.21 45.99L128.97 45.99L130.95 35.22L133.3 35.22L135.97 42.11Z" />
						<path id="Path 1472" class="shp2" d="M141.78 35.22L148.94 35.22L148.61 37.08L143.65 37.08L143.23 39.46L147.78 39.46L147.45 41.33L142.92 41.33L142.42 44.13L147.62 44.13L147.29 45.99L139.83 45.99L141.78 35.22Z" />
					</g>
					<g id="Group 1019">
						<path id="Path 1473" class="shp1" d="M72.3 25.08L73.44 24.64L73.44 24.63C70.71 17.61 65.98 11.62 59.77 7.3C53.42 2.87 45.96 0.53 38.19 0.53C17.34 0.53 0.37 17.5 0.37 38.35C0.37 46.39 2.87 54.07 7.58 60.56L8.81 59.66L11.35 57.87L11.01 57.16L10.67 56.44L7.75 57.25C4.94 52.74 3.19 47.71 2.59 42.43L5.77 41.69L5.72 40.9L5.68 40.11L2.39 39.73C2.37 39.27 2.36 38.81 2.36 38.35C2.36 33.1 3.5 28.12 5.53 23.62L8.8 24.49L9.13 23.77L9.46 23.05L6.75 21.18C9.44 16.27 13.25 12.06 17.83 8.89L20.07 11.31L20.74 10.88L21.4 10.45L20.12 7.43C25.15 4.47 30.96 2.71 37.17 2.54L37.74 5.8L38.53 5.79L39.32 5.79L39.88 2.56C46.25 2.86 52.24 4.79 57.39 8.04L55.92 11.09L56.56 11.55L57.2 12.01L59.65 9.6C64.25 13.04 68.02 17.59 70.57 23L68.33 24.95L68.74 25.62L69.14 26.3L71.59 25.36L71.59 25.36L72.3 25.08Z" />
						<path id="Path 1474" class="shp1" d="M46.93 29.71L57.88 14.52L57.89 14.51C57.6 14.27 57.3 14.04 57 13.82L56.99 13.83L43.61 27.91" />
						<g id="Group 1018">
							<path id="Path 1475" class="shp1" d="M33.36 48.95C29.12 47.29 26.11 43.17 26.11 38.34C26.11 32.04 31.22 26.93 37.52 26.93C40.96 26.93 44.05 28.47 46.14 30.88L47.43 29.07C44.95 26.42 41.43 24.76 37.52 24.76C30.02 24.76 23.94 30.84 23.94 38.34C23.94 43.9 27.29 48.67 32.07 50.77L33.36 48.95Z" />
						</g>
						<path id="Path 1476" class="shp2" d="M39.57 7.62L39.73 17.25C43.06 18.06 46.13 19.54 48.8 21.53L56.1 13.16C51.39 9.87 45.71 7.85 39.57 7.62Z" />
						<path id="Path 1477" class="shp3" d="M37.58 7.61C31.95 7.76 26.7 9.42 22.21 12.18L25.35 17.93C27.96 17.02 30.77 16.52 33.69 16.52C35.07 16.52 36.42 16.63 37.73 16.84L37.58 7.61Z" />
						<path id="Path 1478" class="shp3" d="M14.2 25.7C16.77 22.58 20.08 20.1 23.85 18.5L20.87 13.06C16.76 15.89 13.37 19.71 11.03 24.15L14.2 25.7Z" />
						<path id="Path 1479" class="shp4" d="M8.44 40.34C8.73 35.22 10.55 30.51 13.44 26.66L10.49 25.22C8.57 29.25 7.49 33.76 7.49 38.52C7.49 39.16 7.51 39.8 7.55 40.43L8.44 40.34Z" />
						<path id="Path 1480" class="shp4" d="M8.4 41.15L7.61 41.22C7.87 44.18 8.54 47.02 9.57 49.68L9.67 49.78C8.84 47.28 8.39 44.6 8.39 41.82C8.39 41.59 8.4 41.37 8.4 41.15Z" />
					</g>
					<g id="Group 1021">
						<path id="Path 1481" class="shp5" d="M89.36 59.31L145.47 59.31C145.74 59.31 146.03 59.13 146.11 58.9L148.92 50.32C149 50.09 148.83 49.9 148.56 49.9L92.45 49.9C92.18 49.9 91.89 50.09 91.82 50.32L89 58.9C88.93 59.13 89.09 59.31 89.36 59.31Z" />
						<g id="Group 1020">
							<path id="Path 1482" class="shp6" d="M97.06 52.09L96 52.09L93.96 58.3L92.06 58.3L94.1 52.09L93.04 52.09L93.35 51.16L97.37 51.16L97.06 52.09Z" />
							<path id="Path 1483" fill-rule="evenodd" class="shp6" d="M99.24 58.31L97.91 58.31C97.82 58.17 97.88 57.77 98.09 57.1L98.1 57.1L98.2 56.8C98.35 56.38 98.42 56.17 98.42 56.16C98.48 55.99 98.37 55.91 98.1 55.91L97.31 58.3L95.98 58.3L97.62 53.3L99.26 53.3C99.64 53.3 99.94 53.37 100.17 53.52C100.4 53.66 100.46 53.88 100.36 54.19L100.17 54.79C100.04 55.18 99.68 55.44 99.08 55.58C99.6 55.68 99.79 55.96 99.64 56.4L99.44 56.95C99.18 57.75 99.11 58.2 99.24 58.31ZM98.79 55.03L99.06 54.21C99.12 54.03 99.01 53.95 98.74 53.95L98.29 55.3C98.57 55.3 98.73 55.21 98.79 55.03Z" />
							<path id="Path 1484" class="shp6" d="M102.47 58.3L99.87 58.3L101.52 53.3L104.1 53.3L103.89 53.95L102.63 53.95L102.19 55.3L103.32 55.3L103.12 55.91L101.99 55.91L101.41 57.66L102.68 57.66L102.47 58.3Z" />
							<path id="Path 1485" fill-rule="evenodd" class="shp6" d="M106.73 58.3L105.41 58.3L105.63 56.96L105.04 56.96L104.37 58.3L103.06 58.3L105.69 53.3L107.38 53.3L106.73 58.3ZM105.75 56.27L106.05 54.78L105.38 56.27L105.75 56.27Z" />
							<path id="Path 1486" class="shp6" d="M108.04 56.3L109.25 56.3L108.87 57.45C108.83 57.56 108.9 57.62 109.07 57.62C109.23 57.62 109.33 57.56 109.36 57.45L109.56 56.86C109.62 56.68 109.54 56.46 109.33 56.22C108.91 55.77 108.66 55.46 108.58 55.31C108.49 55.15 108.48 54.98 108.54 54.79L108.72 54.23C108.93 53.58 109.55 53.26 110.58 53.26C111.5 53.26 111.86 53.55 111.66 54.14L111.38 55.01L110.17 55.01L110.48 54.09C110.51 53.99 110.46 53.94 110.32 53.94C110.17 53.94 110.06 54.03 109.99 54.23L109.91 54.55C109.85 54.74 109.93 54.95 110.15 55.2C110.56 55.64 110.81 55.95 110.9 56.12C111 56.3 111.01 56.49 110.94 56.71L110.73 57.35C110.51 58.02 109.88 58.35 108.86 58.35C107.87 58.35 107.47 58.05 107.67 57.44L108.04 56.3Z" />
							<path id="Path 1487" class="shp6" d="M112.78 53.3L114.11 53.3L112.73 57.5C112.69 57.6 112.75 57.65 112.9 57.65C113.05 57.65 113.14 57.6 113.17 57.5L114.55 53.3L115.88 53.3L114.52 57.44C114.42 57.73 114.21 57.95 113.86 58.11C113.52 58.27 113.13 58.35 112.67 58.35C112.25 58.35 111.91 58.28 111.65 58.14C111.39 58 111.31 57.77 111.42 57.45L112.78 53.3Z" />
							<path id="Path 1488" fill-rule="evenodd" class="shp6" d="M118.25 58.31L116.92 58.31C116.83 58.17 116.89 57.77 117.1 57.1L117.11 57.1L117.21 56.8C117.36 56.38 117.43 56.17 117.43 56.16C117.49 55.99 117.38 55.91 117.1 55.91L116.32 58.3L114.99 58.3L116.63 53.3L118.27 53.3C118.64 53.3 118.95 53.37 119.18 53.52C119.41 53.66 119.47 53.88 119.37 54.19L119.18 54.79C119.05 55.18 118.69 55.44 118.09 55.58C118.61 55.68 118.79 55.96 118.65 56.4L118.45 56.95C118.19 57.75 118.12 58.2 118.25 58.31ZM117.8 55.03L118.07 54.21C118.13 54.03 118.02 53.95 117.75 53.95L117.3 55.3C117.58 55.3 117.74 55.21 117.8 55.03Z" />
							<path id="Path 1489" class="shp6" d="M121.48 58.3L118.88 58.3L120.52 53.3L123.11 53.3L122.9 53.95L121.64 53.95L121.2 55.3L122.33 55.3L122.13 55.91L121 55.91L120.42 57.66L121.69 57.66L121.48 58.3Z" />
							<path id="Path 1490" class="shp6" d="M129.35 58.3L127.45 58.3L128.58 54.88L128.05 54.88L126.92 58.3L125.02 58.3L127.37 51.16L129.27 51.16L128.33 54.01L128.86 54.01L129.8 51.16L131.69 51.16L129.35 58.3Z" />
							<path id="Path 1491" class="shp6" d="M131.95 53.3L133.28 53.3L131.9 57.5C131.87 57.6 131.93 57.65 132.08 57.65C132.22 57.65 132.31 57.6 132.35 57.5L133.72 53.3L135.05 53.3L133.69 57.44C133.6 57.73 133.38 57.95 133.04 58.11C132.7 58.27 132.3 58.35 131.85 58.35C131.43 58.35 131.09 58.28 130.83 58.14C130.57 58 130.49 57.77 130.59 57.45L131.95 53.3Z" />
							<path id="Path 1492" class="shp6" d="M137.52 58.3L136.16 58.3L136.13 55.64L135.26 58.3L134.15 58.3L135.79 53.3L137.3 53.3L137.31 55.58L138.06 53.3L139.17 53.3L137.52 58.3Z" />
							<path id="Path 1493" class="shp6" d="M142.46 53.96L141.72 53.96L140.29 58.3L138.96 58.3L140.39 53.96L139.65 53.96L139.86 53.3L142.68 53.3L142.46 53.96Z" />
							<path id="Path 1494" class="shp6" d="M142.39 56.3L143.6 56.3L143.22 57.45C143.18 57.56 143.25 57.62 143.42 57.62C143.58 57.62 143.68 57.56 143.71 57.45L143.91 56.86C143.97 56.68 143.89 56.46 143.68 56.22C143.26 55.77 143.01 55.46 142.92 55.31C142.84 55.15 142.83 54.98 142.89 54.79L143.07 54.23C143.28 53.58 143.9 53.26 144.93 53.26C145.84 53.26 146.21 53.55 146.01 54.14L145.73 55.01L144.52 55.01L144.83 54.09C144.86 53.99 144.81 53.94 144.67 53.94C144.51 53.94 144.4 54.03 144.34 54.23L144.26 54.55C144.2 54.74 144.28 54.95 144.5 55.2C144.91 55.64 145.16 55.95 145.25 56.12C145.35 56.3 145.36 56.49 145.28 56.71L145.07 57.35C144.86 58.02 144.23 58.35 143.2 58.35C142.21 58.35 141.82 58.05 142.02 57.44L142.39 56.3Z" />
						</g>
					</g>
					<g id="Group 1022">
						<path id="Path 1495" fill-rule="evenodd" class="shp1" d="M63.38 49.93C66.05 49.94 68.12 52.04 68.11 54.73C68.11 57.32 65.94 59.39 63.26 59.38C60.73 59.37 58.64 57.2 58.65 54.59C58.66 52.01 60.78 49.92 63.38 49.93ZM66.09 57.94C65.84 57.87 65.68 57.85 65.54 57.79C64.9 57.49 64.23 57.23 63.64 56.85C63.06 56.47 62.57 55.96 62.11 55.57C62.17 55.59 62.35 55.64 62.51 55.71C63.11 55.97 63.7 56.26 64.31 56.49C64.98 56.75 65.74 56.49 66.03 55.95C66.22 55.59 66.12 55.31 65.74 55.17C65.34 55.01 64.99 55.11 64.63 55.32C63.92 55.75 63.37 55.69 62.77 55.12C62.48 54.84 62.2 54.55 61.93 54.25C61.37 53.63 60.67 53.31 59.86 53.16C59.47 53.09 59.34 53.21 59.24 53.56C58.62 55.88 60.14 58.35 62.5 58.82C63.79 59.07 64.96 58.8 66.09 57.94ZM67.37 53.22C66.78 51.46 65.1 50.35 63.16 50.4C61.6 50.45 59.9 51.61 59.54 52.93C59.62 52.93 59.69 52.94 59.76 52.93C60.68 52.85 61.54 52.99 62.38 53.43C62.88 53.69 63.47 53.79 64.02 53.92C64.22 53.97 64.44 53.87 64.65 53.84L64.65 53.71L62.83 52.66L62.91 52.53C64.32 53.15 65.82 53.21 67.37 53.22Z" />
					</g>
					<path id="Path 1496" class="shp1" d="M70.38 59C71.4 56.79 72.4 54.62 73.47 52.31C72.59 52.31 71.8 52.28 71.01 52.32C70.51 52.35 70.19 52.18 69.93 51.75C69.56 51.13 69.12 50.55 68.67 49.91L82.71 49.91C82.14 51.19 81.59 52.43 80.98 53.82C81.66 53.82 82.22 53.81 82.79 53.82C83.3 53.82 83.8 53.79 84.3 53.84C84.67 53.88 84.82 53.72 84.97 53.43C85.52 52.35 86.1 51.28 86.66 50.19C86.78 49.96 86.9 49.83 87.19 49.85C87.68 49.88 88.17 49.86 88.72 49.86C88.46 50.39 88.21 50.88 87.96 51.37C87.17 52.92 86.39 54.47 85.58 56C85.37 56.41 85.39 56.71 85.66 57.07C86.2 57.82 86.7 58.59 87.23 59.37L82.14 59.37C82.52 58.35 82.88 57.37 83.26 56.34C82.93 56.31 82.63 56.27 82.33 56.26C81.61 56.24 80.88 56.24 80.15 56.2C79.88 56.19 79.75 56.29 79.64 56.51C79.24 57.32 78.83 58.11 78.43 58.92C78.32 59.15 78.19 59.28 77.9 59.26C77.4 59.23 76.89 59.25 76.32 59.25C77.33 56.94 78.33 54.67 79.35 52.34C78.49 52.34 77.69 52.34 76.9 52.34C76.44 52.34 75.97 52.37 75.51 52.33C75.19 52.31 75.04 52.44 74.92 52.72C74.08 54.69 73.22 56.65 72.38 58.62C72.26 58.9 72.13 59.04 71.8 59.01C71.34 58.97 70.88 59 70.38 59Z" />
				</g>
			</g>
		</g>
	</g>
</svg>